<svg width="27" height="9" viewBox="0 0 27 9" fill="none" xmlns="http://www.w3.org/2000/svg">
<path d="M0.0722656 8.78132C0.0722656 8.78132 0.241113 8.32307 0.715452 7.64774C0.932523 7.29399 1.24607 6.89201 1.61589 6.45786C2.00983 6.03176 2.43592 5.51723 2.97458 5.05897C3.48912 4.56855 4.11625 4.09421 4.79962 3.61183C5.48299 3.15357 6.26281 2.71943 7.07482 2.32548C7.92702 1.97978 8.80335 1.58583 9.74399 1.38484C10.2103 1.27229 10.6766 1.10346 11.167 1.05523L12.6463 0.886395C13.6271 0.757761 14.616 0.870307 15.5888 0.902466C16.5455 0.998941 17.462 1.22405 18.3625 1.40896C19.2308 1.67427 20.0508 2.0039 20.8306 2.30136C21.5864 2.59883 22.2215 3.06513 22.8406 3.41084C23.4596 3.76458 24.0143 4.11028 24.4324 4.51226C24.8826 4.87405 25.2605 5.21977 25.5499 5.49311C26.1609 6.03981 26.4665 6.38552 26.4665 6.38552C26.4665 6.38552 25.9921 6.29708 25.2122 6.08001C24.8263 5.97549 24.352 5.85489 23.8375 5.67802C23.331 5.4931 22.7039 5.39663 22.0768 5.2278C21.4336 5.09112 20.7583 4.87405 20.0267 4.76149C19.3031 4.63286 18.5394 4.52031 17.7676 4.39167C16.9958 4.3354 16.1918 4.27912 15.3717 4.22284C14.9617 4.23088 14.5517 4.25501 14.1577 4.23893C13.7397 4.23089 13.3377 4.23088 12.9357 4.30324C12.1156 4.38364 11.3037 4.456 10.5078 4.63287C9.68772 4.74542 8.94003 4.9866 8.16019 5.17956C7.42054 5.39663 6.68889 5.63782 5.99748 5.90313C5.33019 6.16843 4.66291 6.40963 4.07602 6.69906C2.88615 7.22968 1.88923 7.76029 1.18978 8.15423C0.466208 8.5321 0.0722656 8.78132 0.0722656 8.78132Z" fill="#030E14"/>
<path d="M0.967773 7.91801C0.967773 7.91801 1.20899 7.57229 1.70744 7.01756C2.22198 6.4789 2.95358 5.70709 3.95854 4.91921C4.95545 4.13936 6.21771 3.30324 7.68897 2.62791C8.42058 2.3224 9.19234 1.99278 10.0043 1.78375C10.8324 1.5506 11.6766 1.3898 12.5369 1.29333C13.381 1.22097 14.2573 1.17274 15.1095 1.25313C15.9457 1.28529 16.7737 1.43805 17.5616 1.61492C18.3495 1.79983 19.0811 2.03298 19.7726 2.31437C20.1183 2.43496 20.4398 2.57968 20.7453 2.73243C21.0669 2.89322 21.3725 2.99774 21.6458 3.17461C22.1925 3.47208 22.7231 3.75346 23.1412 4.05896C23.5753 4.34839 23.9532 4.58155 24.2426 4.82274C24.8214 5.281 25.1591 5.54631 25.1591 5.54631C25.1591 5.54631 24.7973 5.32923 24.1541 4.95137C23.8486 4.75037 23.4628 4.54134 22.9965 4.30819C22.5462 4.067 22.0236 3.83386 21.4528 3.56855C21.1795 3.42384 20.8659 3.32736 20.5604 3.19068C20.2549 3.07009 19.9253 2.94146 19.5796 2.84498C18.9043 2.62791 18.1807 2.443 17.425 2.29025C16.6612 2.13749 15.8814 2.04102 15.0694 2.00082C14.2574 1.95259 13.4454 1.98473 12.6173 2.08121C9.33709 2.40279 6.2659 3.8821 4.21579 5.29708C3.17867 5.98849 2.35866 6.64774 1.81196 7.13816C1.26527 7.60446 0.967773 7.91801 0.967773 7.91801Z" fill="url(#paint0_linear_16744_575)"/>
<defs>
<linearGradient id="paint0_linear_16744_575" x1="13.0634" y1="1.21143" x2="13.0634" y2="7.91801" gradientUnits="userSpaceOnUse">
<stop stop-color="#C9EC06"/>
<stop offset="1" stop-color="#1A5B43"/>
</linearGradient>
</defs>
</svg>
