<svg width="569" height="171" viewBox="0 0 569 171" fill="none" xmlns="http://www.w3.org/2000/svg">
<path opacity="0.5" d="M553.38 58.5827C513.736 54.2815 446.043 56.8702 366.78 54.2815C287.525 51.7088 246.249 59.451 218.183 46.5393C190.116 33.6437 177.727 38.7971 157.081 34.512C136.444 30.1866 145.512 28.4822 152.965 24.173C160.394 19.8718 138.108 15.5625 91.0438 12.9818C43.9797 10.4172 40.6754 4.39545 15.9052 0.0781604C-8.8569 -4.22305 2.68803 170.43 2.68803 170.43C49.7441 170.43 53.8765 165.261 65.4455 164.409C76.9985 163.548 158.722 160.115 142.216 153.234C125.695 146.344 141.38 143.755 154.605 142.903C167.814 142.05 182.672 148.064 199.997 149.784C217.331 151.497 308.991 131.711 288.345 119.676C267.707 107.617 303.194 110.205 321.356 110.205C339.541 110.205 436.114 103.307 415.492 96.4414C394.838 89.5595 406.407 87.839 444.386 84.39C482.35 80.949 488.13 75.7876 515.393 76.6398C542.639 77.5 593.007 62.9 553.38 58.5827ZM65.4536 131.719C55.5327 133.432 50.6928 128.399 62.1413 126.558C72.8742 124.829 75.3424 129.999 65.4536 131.719ZM89.3876 62.0237C77.8266 66.3249 76.9985 63.7522 52.2364 64.6124C27.4662 65.4646 7.66458 58.5827 15.0852 51.7008C22.5138 44.8269 47.3161 46.6679 67.0937 45.671C101.761 43.9666 100.957 57.7305 89.3876 62.0237ZM146.349 84.398C133.147 87.847 128.774 75.4499 141.388 74.9353C162.854 74.0831 159.558 80.957 146.349 84.398ZM198.373 106.772C171.947 103.315 205.874 96.361 219.003 98.1619C262.763 104.184 224.783 110.213 198.373 106.772Z" fill="#072733"/>
</svg>
