<svg width="635" height="67" viewBox="0 0 635 67" fill="none" xmlns="http://www.w3.org/2000/svg">
<path opacity="0.5" d="M619.759 29.8827C576.796 26.8911 559.827 28.5948 524.318 26.4591C488.802 24.3154 425.171 23.4515 396.551 23.4515C367.914 23.4515 398.656 17.0364 352.527 17.0364C306.399 17.0364 349.877 13.1809 359.963 11.9091C370.036 10.6212 435.778 -2.21705 328.669 0.334612C275.627 1.61444 204.614 6.33381 238.534 9.75735C272.479 13.1809 297.914 14.0448 285.19 19.1801C272.479 24.3234 276.712 26.0192 296.877 26.8911C317.018 27.739 336.098 30.3066 285.19 31.1625C234.319 32.0184 264.258 25.3793 212.571 28.5948C160.866 31.8024 163.78 33.3062 169.626 35.8819C175.461 38.4415 179.694 40.5772 146.817 41.0092C113.946 41.4411 29.1121 41.0092 33.3694 44.4327C37.5907 47.8723 22.2225 47.4403 11.0996 48.2802C-0.0472568 49.1361 -12.7591 55.1353 27.5231 56.4151C67.8114 57.7029 107.596 51.7118 119.247 56.4151C130.915 61.1345 127.191 64.558 156.351 63.2622C185.516 61.9824 232.706 60.6945 249.675 63.6941C266.638 66.6777 285.185 69.6934 323.356 62.8463C361.534 55.9912 393.337 46.1445 432.588 44.8567C471.797 43.5688 523.772 47.8643 564.606 44.4247C605.452 41.0092 662.697 32.8823 619.759 29.8827ZM249.154 45.2966C233.252 43.5688 231.657 38.4415 244.393 38.4415C257.098 38.4415 257.68 39.2254 279.92 40.1533C310.656 41.4411 265.049 47.0084 249.154 45.2966Z" fill="#072733"/>
</svg>
