<svg width="1008" height="130" viewBox="0 0 1008 130" fill="none" xmlns="http://www.w3.org/2000/svg">
<path opacity="0.5" d="M924.038 72.1966C799.093 58.4327 706.927 50.6905 787.838 47.2415C868.725 43.8005 995.711 26.6037 911.737 24.0149C827.779 21.4342 730.491 33.4856 662.902 29.1844C595.32 24.8832 676.215 21.4422 590.199 19.7137C504.191 17.9932 458.1 17.9932 495.982 11.1113C533.881 4.23739 488.835 1.64058 461.179 0.796417C421.254 -0.449729 402.803 -0.0638261 322.921 0.796417C243.063 1.64058 218.494 15.4125 257.39 20.574C296.318 25.7515 305.515 30.0447 187.766 36.9266C70.0015 43.8005 -43.6711 49.8302 16.7549 57.5563C77.1729 65.3146 79.2069 63.5861 74.1017 68.7475C68.9724 73.909 82.2941 74.7773 111.993 73.909C141.675 73.0568 198.001 79.9307 242.042 80.7909C286.075 81.6512 332.142 90.2456 304.494 94.5548C276.854 98.8641 214.394 109.179 276.854 114.356C339.314 119.518 360.812 125.532 418.175 128.973C475.505 132.422 614.784 121.23 554.366 112.62C493.94 104.034 433.538 95.4151 520.576 90.2456C607.597 85.0922 617.855 81.6592 590.199 77.358C562.551 73.0568 619.898 75.6375 662.902 76.4897C705.922 77.358 778.624 85.9604 742.767 89.4014C706.935 92.8424 697.713 105.746 729.47 110.047C761.235 114.356 714.106 122.967 777.603 121.238C841.076 119.518 906.64 121.238 958.849 114.365C1011.06 107.467 1048.97 85.9604 924.038 72.1966ZM351.092 67.9034C314.736 67.9034 338.285 66.1749 311.657 62.7258C285.03 59.2849 336.749 55.0641 344.451 55.4178C372.083 56.7041 387.439 67.9034 351.092 67.9034ZM389.481 75.2034C370.54 74.3431 383.805 69.6078 392.552 70.0419C418.665 71.3363 408.431 76.0556 389.481 75.2034ZM801.135 97.1597C782.186 96.7175 796.529 86.2338 821.612 87.6729C851.319 89.4014 820.077 97.5777 801.135 97.1597ZM862.076 94.5548C852.348 94.989 851.825 90.4787 859.519 90.6878C875.39 91.1299 871.788 94.1368 862.076 94.5548Z" fill="#072733"/>
</svg>
