<svg width="27" height="16" viewBox="0 0 27 16" fill="none" xmlns="http://www.w3.org/2000/svg">
<path d="M0.272461 15.2197C0.272461 15.2197 0.2805 14.6971 0.49757 13.8128C0.586006 13.3706 0.730718 12.8561 0.947789 12.2531C1.16486 11.6742 1.40602 10.9909 1.77585 10.3155C2.12155 9.60001 2.55567 8.8684 3.05412 8.12071C3.56062 7.38106 4.17169 6.62534 4.85506 5.90981C5.56255 5.2184 6.28607 4.47071 7.17043 3.88381C7.60457 3.57831 7.99855 3.21652 8.45681 2.96729L9.87181 2.18744C10.3381 1.92213 10.8446 1.72918 11.3511 1.54427C11.8415 1.35936 12.356 1.18249 12.8464 1.01365C13.8675 0.716187 14.8805 0.555395 15.8613 0.370483C16.8421 0.290086 17.7989 0.274007 18.6993 0.257928C19.5998 0.233809 20.4439 0.426773 21.2157 0.515209C21.9795 0.619724 22.679 0.724231 23.2739 0.949341C23.8769 1.12621 24.3914 1.31112 24.8094 1.45584C25.6375 1.7533 26.1038 1.97842 26.1038 1.97842C26.1038 1.97842 25.5893 2.05881 24.7129 2.14725C24.2708 2.17941 23.7401 2.24373 23.1532 2.25981C22.5583 2.26784 21.8911 2.4206 21.1675 2.501C20.8138 2.55728 20.4439 2.6055 20.058 2.66178C19.6721 2.71806 19.2862 2.72611 18.8842 2.83866C18.1124 3.01554 17.2763 3.19241 16.4321 3.36928C15.604 3.63459 14.7599 3.8999 13.8916 4.17325C13.4816 4.35816 13.0796 4.55111 12.6535 4.70387C12.2354 4.86466 11.8093 5.03349 11.4234 5.26664C10.6275 5.6847 9.81547 6.10276 9.07583 6.60926C8.30402 7.06752 7.6287 7.63029 6.92925 8.14483C6.25392 8.68349 5.61075 9.23822 5.03993 9.80099C4.46108 10.3557 3.88226 10.8863 3.40792 11.417C2.43512 12.4702 1.66328 13.4269 1.13266 14.1183C0.569885 14.7936 0.272461 15.2197 0.272461 15.2197Z" fill="#030E14"/>
<path d="M0.949219 13.632C0.949219 13.632 0.965254 13.5275 1.02957 13.3265C1.07781 13.1336 1.16628 12.8281 1.29492 12.4743C1.42355 12.1125 1.61646 11.6784 1.82549 11.188C2.05864 10.6976 2.29182 10.1267 2.66164 9.572C2.98323 8.99314 3.40132 8.3982 3.8435 7.77111C4.06057 7.44952 4.34191 7.16813 4.59114 6.85459C4.86449 6.55712 5.10571 6.21946 5.4273 5.94612C5.7328 5.66473 6.03829 5.36726 6.36791 5.07784C6.66538 4.77233 7.03519 4.53917 7.39697 4.25778C8.08838 3.70305 8.89239 3.28498 9.6642 2.83476C10.0501 2.60161 10.4842 2.45691 10.8943 2.28808C11.3204 2.11924 11.7304 1.95845 12.1404 1.78962C12.9765 1.54843 13.8367 1.36352 14.6487 1.16253C15.4849 1.05801 16.2969 0.985652 17.0526 0.921335C17.8325 0.865057 18.556 0.937405 19.2072 0.937405C19.5529 0.945445 19.8665 0.953497 20.164 0.969577C20.4775 0.985656 20.7508 1.04996 21.0161 1.0982C21.5468 1.1786 22.0131 1.25096 22.399 1.31528C23.1628 1.45999 23.5969 1.52431 23.5969 1.52431C23.5969 1.52431 23.1467 1.50018 22.3749 1.45999C21.989 1.43587 21.5307 1.40371 20.992 1.37155C20.4695 1.30724 19.8584 1.34743 19.1992 1.37155C18.548 1.40371 17.8405 1.37155 17.1008 1.48411C16.3451 1.59666 15.5894 1.71725 14.7693 1.82981C13.9975 2.04688 13.1936 2.272 12.3655 2.50515C11.9716 2.6579 11.5856 2.82673 11.1917 2.98752C10.7897 3.14832 10.3797 3.28499 10.0179 3.51814C9.25416 3.94424 8.49841 4.32211 7.83112 4.85273C7.49346 5.11803 7.12364 5.32706 6.81813 5.60845C6.50458 5.88984 6.19909 6.15514 5.90162 6.42849C5.58004 6.67772 5.33078 6.9993 5.05743 7.27265C4.80016 7.56208 4.51073 7.81131 4.27758 8.12486C3.81129 8.69568 3.36912 9.25845 3.02341 9.80514C2.27573 10.8825 1.74513 11.8472 1.42354 12.5386C1.09392 13.222 0.949219 13.632 0.949219 13.632Z" fill="url(#paint0_linear_16745_578)"/>
<defs>
<linearGradient id="paint0_linear_16745_578" x1="12.273" y1="0.899902" x2="12.273" y2="13.632" gradientUnits="userSpaceOnUse">
<stop stop-color="#C9EC06"/>
<stop offset="1" stop-color="#1A5B43"/>
</linearGradient>
</defs>
</svg>
