<svg width="51" height="26" viewBox="0 0 51 26" fill="none" xmlns="http://www.w3.org/2000/svg">
<path d="M0.00807568 25.35C0.00807568 25.35 0.225147 24.4013 0.787923 22.8175C1.3507 21.2337 2.2994 18.9987 3.75458 16.4742C4.47011 15.2039 5.34641 13.8694 6.35941 12.5187C7.34828 11.1359 8.59443 9.81737 9.92901 8.48279C11.2958 7.19645 12.8233 5.94227 14.5277 4.87299C16.2562 3.8198 18.0812 2.83897 20.051 2.1556C21.9885 1.38379 24.0225 0.877284 26.0324 0.443142C27.0615 0.306468 28.0745 0.113523 29.0875 0.0411661C30.0844 0.000967805 31.0894 -0.0231467 32.0702 0.0331308C33.043 0.129607 33.9917 0.218043 34.9002 0.394916C35.8006 0.603947 36.685 0.837089 37.5452 1.07828C39.1933 1.64105 40.745 2.19579 42.0796 2.91936C42.7469 3.25702 43.382 3.59469 43.9769 3.93235C44.5558 4.30217 45.1025 4.64789 45.5929 5.00967C46.0913 5.36341 46.5416 5.68499 46.9757 5.99854C47.4018 6.32013 47.7556 6.6578 48.0933 6.93918C49.3876 8.11297 50.0629 8.8687 50.0629 8.8687C50.1996 9.01341 50.1835 9.26263 50.0228 9.38323C49.9504 9.44755 49.8539 9.47971 49.7655 9.47971H49.7414C49.7414 9.47971 48.7123 9.43147 47.04 9.18224C46.228 9.04557 45.207 8.90086 44.0895 8.73202C43.5187 8.65967 42.9318 8.55516 42.3127 8.4426C41.6937 8.3622 41.0345 8.28984 40.3672 8.16925C39.7079 8.08081 39.0245 7.94414 38.309 7.8959C37.6015 7.79942 36.8699 7.71099 36.1303 7.61451C35.3745 7.55019 34.6188 7.48588 33.863 7.3894C33.0912 7.31705 32.3194 7.27685 31.5235 7.18841C30.7356 7.0839 29.9477 7.09193 29.1277 6.97938C28.3237 6.93918 27.5037 6.89898 26.6756 6.86682C25.0275 6.89094 23.3231 6.99547 21.6749 7.40549C20.0107 7.75923 18.4189 8.38633 16.8592 9.07774C15.3317 9.81738 13.8684 10.6615 12.5017 11.6022C9.80038 13.5317 7.50911 15.7506 5.74039 17.8651C3.96362 19.9714 2.74157 21.9492 1.88133 23.332C1.0452 24.7309 0.651262 25.567 0.651262 25.567C0.570866 25.752 0.369881 25.8082 0.193009 25.752C0.0402554 25.6796 -0.0240829 25.5108 0.00807568 25.35Z" fill="#030E14"/>
<path d="M0.982422 23.455C0.982422 23.455 1.25574 22.5706 1.92304 21.0672C2.2607 20.3276 2.68681 19.4352 3.24155 18.4383C3.50686 17.9318 3.80432 17.4092 4.15002 16.8625C4.46357 16.3158 4.84144 15.745 5.25146 15.1822C5.44441 14.8928 5.65348 14.5873 5.85447 14.2978C6.07958 14.0084 6.32076 13.7109 6.54587 13.4135C6.77902 13.116 7.01215 12.8105 7.26137 12.505C7.5106 12.2075 7.77591 11.9101 8.04926 11.6126C8.31457 11.299 8.57986 11.0016 8.86125 10.688C9.13459 10.3906 9.45618 10.1092 9.75365 9.81171C10.0592 9.51425 10.3647 9.21678 10.6783 8.91931C10.9838 8.62184 11.3455 8.35654 11.6832 8.07515C12.0289 7.79376 12.3666 7.52041 12.7123 7.22294C13.066 6.94155 13.46 6.71644 13.8217 6.45113C14.5775 5.93659 15.3252 5.3899 16.1452 4.9638C17.7531 4.01512 19.4978 3.26744 21.2665 2.63231C22.175 2.367 23.0593 2.0856 23.9919 1.84441C24.9004 1.66754 25.8169 1.49871 26.7173 1.32988C27.6499 1.2334 28.5665 1.14496 29.483 1.06456C30.3995 1.06456 31.2919 1.04849 32.1762 1.08065C33.0606 1.17713 33.9289 1.20928 34.7731 1.34595C35.6012 1.51478 36.4292 1.62734 37.2091 1.86853C38.7768 2.27855 40.224 2.77701 41.5023 3.35586C41.8239 3.50862 42.1374 3.6453 42.4429 3.78198C42.7323 3.94277 43.0378 4.09551 43.3192 4.24826C43.874 4.55377 44.3965 4.86733 44.8709 5.17284C45.8356 5.77581 46.6396 6.37878 47.2747 6.89331C48.553 7.93043 49.164 8.63792 49.164 8.63792C49.164 8.63792 48.4968 7.97867 47.1783 7.02195C46.5271 6.53153 45.7151 5.98484 44.7262 5.4301C44.2358 5.14872 43.7051 4.85929 43.1343 4.59398C42.8609 4.44927 42.5635 4.31259 42.258 4.1518C41.9525 4.02316 41.647 3.90256 41.3173 3.76589C40.0551 3.22723 38.616 2.76898 37.0724 2.41523C36.3006 2.2062 35.4967 2.14188 34.6605 1.98109C33.8405 1.86853 33.0043 1.83637 32.1441 1.75598C31.2758 1.7399 30.4075 1.76401 29.5151 1.76401C28.6388 1.86049 27.7384 1.94893 26.854 2.03736C25.9616 2.21424 25.0451 2.4072 24.1286 2.57603C23.2683 2.80918 22.384 3.10664 21.5157 3.37998C19.7711 3.97492 18.0747 4.69849 16.507 5.60697C15.6869 6.00091 14.9633 6.53153 14.2157 7.02195C13.8539 7.27118 13.468 7.49629 13.1223 7.77768C12.7846 8.05103 12.447 8.32437 12.1093 8.59772C11.7717 8.87911 11.4259 9.12834 11.1204 9.41777C10.7988 9.7072 10.5013 9.99661 10.1958 10.278C9.89836 10.5594 9.57678 10.8247 9.29539 11.1302C9.02205 11.4196 8.74872 11.7091 8.46733 12.0065C8.19399 12.296 7.9287 12.5854 7.65535 12.8668C7.41416 13.1723 7.1649 13.4537 6.93175 13.7511C6.69056 14.0325 6.44939 14.322 6.22428 14.5953C6.00721 14.8767 5.79815 15.1742 5.6052 15.4475C5.1791 16.0022 4.80125 16.557 4.46358 17.0876C4.1018 17.6021 3.77215 18.1086 3.49076 18.6071C2.88779 19.5638 2.42958 20.4482 2.05976 21.1637C1.32011 22.5867 0.982422 23.455 0.982422 23.455Z" fill="url(#paint0_linear_16745_576)"/>
<defs>
<linearGradient id="paint0_linear_16745_576" x1="25.0732" y1="1.06055" x2="25.0732" y2="23.455" gradientUnits="userSpaceOnUse">
<stop stop-color="#C9EC06"/>
<stop offset="1" stop-color="#1A5B43"/>
</linearGradient>
</defs>
</svg>
