<svg width="1440" height="587" viewBox="0 0 1440 587" fill="none" xmlns="http://www.w3.org/2000/svg">
<path d="M1427.38 23.4082H-19.7588V827.373H1427.38V23.4082Z" fill="black"/>
<path d="M1470.18 0.113281H-87.3408V589.661H1470.18V0.113281Z" fill="#030E14"/>
<path d="M1485.92 211.94C1408.18 211.94 1340.06 249.124 1316.31 300.835C1287.98 287.095 1251.8 282.665 1217.13 291.131C1179.74 300.256 1152.92 322.22 1142.57 348.26C1117.63 339.264 1089.61 334.215 1059.99 334.215C985.74 334.215 921.479 365.956 890.526 412.144C867.911 396.297 837.425 386.561 803.835 386.561C758.419 386.561 718.582 404.353 696.337 431.029C679.285 372.725 609.324 329.054 525.575 329.054C458.186 329.054 399.714 357.353 370.562 398.798C340.598 380.91 302.531 370.209 261.094 370.209C195.909 370.209 139.06 396.683 109.032 435.925H106.403C99.1756 414.949 81.3276 397.158 57.3534 385.83C63.5519 372.444 66.9286 358.093 66.9286 343.147C66.9286 270.67 -12.2861 211.932 -110 211.932V435.925V474.362V606.422H1485.93L1485.92 211.94Z" fill="url(#paint0_linear_12760_24348)"/>
<path d="M1445.32 462.823C1437.28 447.684 1428.93 435.014 1420.23 426.878C1417.35 424.192 1397.16 419.401 1397.16 419.401C1385.59 401.279 1371.07 372.924 1357.98 368.132C1356.68 367.642 1349.35 379.693 1349.35 379.693C1337.54 355.18 1321.51 327.95 1305.45 311.871C1302.15 308.558 1289.74 303.718 1289.74 303.718C1282.55 285.693 1279.04 276.882 1272.19 259.629C1258.68 247.063 1243.04 237.946 1227.49 231.603C1224.68 230.429 1224.33 232.407 1224.33 232.407C1214.96 254.355 1212.64 281.786 1209.9 306.251C1207.38 306.894 1206.1 307.191 1203.57 307.835C1198.42 318.793 1195.78 324.292 1190.38 335.74C1194.72 369.708 1202.54 403.121 1209.6 436.252C1204.76 440.682 1202.35 442.893 1197.43 447.339C1199.02 499.99 1202.93 553.028 1214.04 603.943C1291.57 608.325 1368.42 606.773 1445.31 597.141L1445.32 462.823Z" fill="#748384"/>
<path d="M1272.22 457.657C1265.42 444.03 1262.09 437.277 1255.53 424.036C1238.72 414.927 1230.55 410.513 1214.51 401.452C1212.64 415.079 1211.64 422.042 1209.61 436.248C1204.77 440.678 1202.36 442.889 1197.44 447.334C1199.03 499.986 1202.94 553.024 1214.05 603.939C1260.08 606.56 1306.02 607.348 1352.09 605.804C1329.64 557.108 1307.08 508.492 1284.58 459.868C1279.63 459.008 1277.16 458.566 1272.22 457.657Z" fill="#677475"/>
<path d="M1445.32 462.854C1437.27 447.683 1428.92 435.013 1420.23 426.877C1417.34 424.175 1397.16 419.4 1397.16 419.4C1385.6 401.278 1371.04 372.906 1357.99 368.131C1356.68 367.64 1349.35 379.692 1349.35 379.692C1344.2 384.902 1341.62 387.514 1336.38 392.772C1338.11 403.763 1338.95 409.358 1340.64 420.694C1336.11 423.411 1333.84 424.762 1329.27 427.479C1340.77 486.474 1350.96 545.831 1360.4 605.421C1388.82 603.725 1417.11 601.023 1445.32 597.333V462.854Z" fill="#5D6869"/>
<path d="M1260.25 337.426C1253.36 344.775 1249.86 348.465 1242.73 355.926C1247.39 379.305 1252 402.716 1256.55 426.128C1262.72 438.565 1265.85 444.876 1272.22 457.659C1277.16 458.568 1279.63 459.01 1284.58 459.87C1307.09 508.502 1329.64 557.118 1352.09 605.806C1355.41 605.645 1357.07 605.589 1360.39 605.412C1350.95 545.822 1340.76 486.465 1329.26 427.47C1333.82 424.753 1336.11 423.402 1340.62 420.685C1339.36 412.187 1338.73 407.998 1337.44 399.693C1326.75 384.474 1321.51 376.957 1311.3 362.116C1294.22 354.101 1277.22 345.868 1260.25 337.426Z" fill="#677475"/>
<path d="M1349.35 379.693C1337.54 355.18 1321.51 327.95 1305.45 311.871C1302.15 308.558 1289.74 303.718 1289.74 303.718C1282.55 285.693 1279.04 276.882 1272.19 259.629C1258.68 247.063 1243.04 237.946 1227.49 231.603C1224.68 230.429 1224.33 232.407 1224.33 232.407C1214.96 254.355 1212.64 281.786 1209.9 306.251C1207.38 306.894 1206.1 307.191 1203.57 307.835C1198.42 318.793 1195.78 324.292 1190.38 335.74C1194.72 369.708 1202.54 403.121 1209.6 436.252C1211.64 422.038 1212.64 415.084 1214.5 401.456C1230.53 410.517 1238.71 414.931 1255.52 424.04C1255.93 424.884 1256.14 425.294 1256.55 426.13C1252.01 402.719 1247.38 379.307 1242.73 355.928C1249.86 348.467 1253.35 344.777 1260.25 337.429C1277.22 345.878 1294.21 354.103 1311.31 362.126C1321.51 376.968 1326.75 384.485 1337.44 399.704C1337.02 396.922 1336.79 395.539 1336.37 392.782C1341.62 387.516 1344.2 384.911 1349.35 379.693Z" fill="#728182"/>
<path d="M1257.68 346.18C1253.32 350.827 1251.12 353.167 1246.66 357.862C1250.77 377.567 1252.85 387.697 1257.08 408.6C1267.72 422.476 1273.17 429.511 1284.3 443.709C1293.8 461.847 1298.68 471.076 1308.62 489.857C1300.73 454.322 1292.67 418.834 1284.33 383.476C1273.37 368.337 1268.04 360.869 1257.68 346.18Z" fill="#849697"/>
<path d="M1310.05 368.485C1306.19 382.41 1304.14 389.509 1299.92 404.053C1306.6 421.716 1310.02 430.76 1316.95 449.211C1314.94 422.279 1312.64 395.354 1310.05 368.485Z" fill="#748384"/>
<path d="M1356.3 374.767C1350.42 382.276 1347.42 386.038 1341.38 393.716C1344.61 396.53 1346.24 397.921 1349.53 400.703C1352.33 390.171 1353.68 384.977 1356.3 374.767Z" fill="#707E7F"/>
<path d="M1369.75 402.78C1370.19 410.587 1370.42 414.542 1370.81 422.55C1378.46 442.48 1386.02 462.451 1393.5 482.485C1392.95 460.457 1392.59 449.82 1391.71 429.126C1382.81 418.554 1378.41 413.264 1369.75 402.78Z" fill="#707E7F"/>
<path d="M1341.16 402.78C1341.26 403.52 1345.11 426.851 1345.11 426.851C1340.41 427.856 1338.03 428.346 1333.33 429.351C1337.1 451.099 1338.97 462.314 1342.69 485.428C1347.44 463.415 1349.65 452.795 1353.81 432.181C1348.7 420.267 1346.17 414.381 1341.16 402.78Z" fill="#707E7F"/>
<path d="M1204.48 309.363C1200.04 319.823 1197.76 325.032 1193.11 335.918C1198.19 360.809 1203.25 385.692 1208.25 410.598C1208.21 384.831 1208.05 359.048 1207.76 333.281C1208.39 323.296 1208.7 318.472 1209.28 308.849C1207.35 309.05 1206.41 309.178 1204.48 309.363Z" fill="#849697"/>
<path d="M1225.86 235.864C1220.3 266.857 1213.8 299.144 1213.57 331.101C1218.62 353.114 1223.65 375.151 1228.65 397.179C1231.25 377.032 1232.49 367.344 1234.75 348.499C1240.85 338.562 1243.8 333.594 1249.66 324.002C1246.5 303.043 1243.26 282.092 1239.99 261.165C1234.23 250.938 1231.39 245.881 1225.86 235.864Z" fill="#849697"/>
<path d="M1264.99 259.096C1264.94 258.501 1246.24 261.766 1246.24 261.766C1252.77 283.641 1259.33 305.525 1265.87 327.401C1265.66 304.649 1265.41 281.865 1264.99 259.096Z" fill="#849697"/>
<path d="M1336.38 392.776C1341.62 387.518 1344.21 384.913 1349.35 379.695C1337.54 355.183 1321.51 327.952 1305.45 311.873C1302.15 308.561 1289.75 303.721 1289.75 303.721C1297.48 324.182 1305.38 344.546 1313.25 364.943C1322.73 378.682 1327.57 385.621 1337.45 399.69C1337.03 396.924 1336.8 395.542 1336.38 392.776Z" fill="#566161"/>
<path d="M1445.32 470.331C1437.29 452.162 1429.04 435.254 1420.22 426.885C1417.37 424.184 1397.16 419.408 1397.16 419.408C1411.89 447.676 1426.57 475.935 1441.13 504.355C1441.13 504.355 1442.74 504.749 1445.32 505.36V470.331Z" fill="#535D5E"/>
<path d="M1343.48 587.155C1323.87 544.714 1304.22 502.296 1284.58 459.871C1279.63 459.011 1277.16 458.569 1272.22 457.66C1281.07 493.477 1289.63 529.374 1298.05 565.335C1313.11 572.9 1328.27 580.168 1343.48 587.155Z" fill="#728182"/>
<path opacity="0.5" d="M1208.03 441.911C1204.67 444.781 1202.98 446.212 1199.58 449.106C1200.99 484.247 1202.29 520.145 1207.99 554.643C1212.28 537.309 1214.37 528.827 1218.37 512.25C1214.52 488.902 1210.88 465.491 1208.03 441.911Z" fill="#92A2A2"/>
<path opacity="0.5" d="M1215.12 407.396C1214.02 419.986 1213.46 426.393 1212.26 439.474C1216.2 463.118 1220.09 486.819 1223.92 510.496C1239.5 519.01 1247.28 522.885 1263.49 531.383C1247.32 490.067 1231.18 448.751 1215.12 407.396Z" fill="#92A2A2"/>
<path d="M1445.31 89.541C1441.4 82.9002 1437.52 76.2032 1433.7 69.4579C1433.57 69.4097 1433.46 69.3615 1433.34 69.3132C1413.86 62.1981 1393.86 54.3836 1374.03 47.2363C1364.81 43.924 1355.62 40.3785 1346.63 36.0371C1313.3 36.7526 1280.2 40.282 1246.98 43.5783C1234.57 65.4381 1224.43 86.7914 1215 111.007C1217.21 176.281 1223.95 240.791 1232.38 304.851C1241.82 376.629 1253.21 448.696 1265.4 519.831C1272.56 561.549 1280.31 603.443 1287.43 645.282C1288.28 650.21 1289.1 655.203 1289.93 660.211C1342.33 650.62 1394.12 638.118 1445.3 622.747V89.541H1445.31Z" fill="#7D8E8E"/>
<g opacity="0.7">
<path d="M1267.03 115.185C1266.91 114.654 1266.75 114.132 1266.61 113.601C1266.75 114.341 1266.91 115.064 1267.03 115.78C1267.03 115.579 1267.03 115.386 1267.03 115.185Z" fill="#809293"/>
</g>
<g opacity="0.7">
<path d="M1445.31 89.541C1441.4 82.9002 1437.52 76.2032 1433.7 69.4579C1433.57 69.4097 1433.46 69.3615 1433.34 69.3132C1413.86 62.1981 1393.86 54.3836 1374.03 47.2363C1364.81 43.924 1355.62 40.3785 1346.63 36.0371C1313.3 36.7526 1280.2 40.282 1246.98 43.5783C1234.57 65.4381 1224.43 86.7914 1215 111.007C1217.21 176.281 1223.95 240.791 1232.38 304.851C1241.82 376.629 1253.21 448.696 1265.4 519.831C1272.56 561.549 1280.31 603.443 1287.43 645.282C1288.28 650.21 1289.1 655.203 1289.93 660.211C1342.33 650.62 1394.12 638.118 1445.3 622.747V89.541H1445.31ZM1304.42 233.009C1304.34 233.29 1303.95 233.354 1303.65 233.137C1295.58 227.783 1286.92 222.605 1280.57 215.49C1273.43 207.434 1271.34 197.731 1269.36 188.686C1269.01 187.118 1268.7 185.534 1268.39 183.991C1266.88 196.147 1265.53 208.673 1263.65 221.126C1258.88 252.77 1253.17 285.033 1251.57 316.532C1251.54 317.111 1250.53 317.095 1250.45 316.452C1245.83 282.694 1240.16 248.228 1234.9 214.148C1232.3 197.296 1229.8 180.855 1227.44 164.72C1225.39 150.554 1222.37 136.501 1222.6 123.219C1222.85 109.56 1228.2 98.3122 1233.67 87.2095C1237.4 79.604 1241.44 72.2155 1245.57 64.9718C1247.3 59.9229 1249.5 55.1393 1252.47 50.9426C1252.61 50.7336 1252.98 50.7497 1253.15 51.0069C1256.99 56.9482 1257.07 63.396 1258.16 69.7956C1259.49 77.6101 1260.98 85.4327 1262.53 93.2714C1262.89 95.0964 1263.26 96.9133 1263.62 98.7383C1264.73 103.168 1265.85 107.582 1267.05 112.004C1267.24 98.5615 1269.14 85.5453 1273.9 74.137C1274.02 73.8958 1274.42 73.7833 1274.65 74.1049C1275.95 76.0102 1277.24 77.9398 1278.44 79.9014C1291.45 101.094 1300.51 126.017 1306.98 151.736C1313.71 178.443 1311.09 206.759 1304.42 233.009Z" fill="#809293"/>
</g>
<g opacity="0.7">
<path d="M1445.31 134.137C1437.48 130.415 1429.79 126.113 1422.34 122.174C1417.36 119.537 1412.25 117.021 1407.66 113.756C1403.81 111.023 1400.45 107.791 1397.34 104.446C1390.62 97.1786 1384.9 89.3561 1380.15 81.3888C1379.12 79.6763 1378.15 77.98 1377.21 76.2595C1372.15 68.6218 1367.85 60.7269 1364.36 52.7033C1364.22 52.3576 1364.59 52.1325 1364.9 52.2933C1383.51 61.7238 1401.66 74.8204 1417.32 90.3851C1427.02 100.057 1436.78 110.058 1445.31 121.523V89.541C1441.39 82.9002 1437.52 76.2032 1433.69 69.4579C1433.56 69.4097 1433.45 69.3615 1433.34 69.3132C1413.85 62.1981 1393.85 54.3836 1374.02 47.2363C1364.81 43.924 1355.62 40.3785 1346.62 36.0371C1313.29 36.7526 1280.19 40.282 1246.97 43.5783C1246.94 43.6105 1246.94 43.6265 1246.9 43.6426C1249.48 45.548 1252.34 47.0836 1255.11 48.6111C1259.37 50.9346 1263.55 53.4831 1267.31 56.908C1275.81 64.602 1281.55 74.547 1287.93 84.1383C1295.68 95.8119 1303.8 107.63 1310.71 120.003C1313.84 125.591 1316.72 131.219 1318.91 137.023C1320.84 142.177 1322.67 147.435 1325.75 152.411C1313.91 118.773 1297.9 87.3542 1285.53 55.1152C1285.35 54.6891 1285.89 54.5846 1286.18 54.7856C1296.82 61.8203 1305.15 72.32 1314.12 82.0078C1324 92.6684 1334.7 102.999 1345.49 113.596C1348.91 116.94 1352.83 121.04 1352.54 125.245C1352.26 129.466 1349.26 132.465 1346.62 135.279C1343.03 139.033 1339.91 143.19 1336.67 147.306C1333.23 151.591 1329.82 155.973 1326.95 160.917C1320.64 171.803 1317.87 184.803 1315.17 198.068C1313.99 203.945 1312.6 209.637 1312.47 215.973C1312.35 221.263 1312.63 226.866 1311.42 231.923C1310.6 235.445 1308.66 239.601 1303.84 239.006C1300.66 238.612 1297.47 237.358 1294.31 236.618C1291.27 235.927 1288.23 235.316 1285.22 234.753C1283.13 234.343 1281.04 233.965 1278.93 233.563C1271.94 249.908 1264.5 266.759 1260.24 285.853C1257.53 297.897 1256.61 310.535 1256.35 323.945C1256.11 336.648 1256.13 349.744 1254.3 362.825C1254.2 363.468 1253.27 363.452 1253.12 362.744C1247.43 339.864 1244.67 314.064 1239.65 290.548C1235.83 272.588 1231.12 254.732 1227.44 237.519C1225.26 227.437 1223.18 217.5 1221.1 207.7C1224.22 240.22 1228.15 272.692 1232.38 304.851C1241.85 376.645 1253.21 448.696 1265.4 519.831C1272.56 561.549 1280.31 603.443 1287.43 645.282C1288.28 650.21 1289.1 655.203 1289.93 660.211C1342.33 650.62 1394.12 638.118 1445.3 622.747V134.137H1445.31ZM1387.57 129.217C1387.49 129.394 1387.15 129.434 1386.92 129.249C1361.9 109.889 1337.86 86.3734 1313.42 64.61C1305.34 59.2556 1297.14 54.1987 1290.6 47.1479C1290.41 46.9389 1290.46 46.5449 1290.71 46.4967C1297.4 44.937 1304.73 44.5752 1312.02 44.937C1317.75 45.2264 1323.58 45.8616 1329.43 46.8746C1334.29 47.7107 1339.39 48.5307 1344.31 50.3959C1347.75 51.7064 1351.09 53.6922 1353.72 56.691C1357.38 60.8555 1359.64 65.7597 1362.2 70.4066C1365.96 77.2162 1369.89 83.9856 1373.4 90.8514C1375.91 95.7637 1377.95 100.74 1380.36 105.677C1382.59 110.243 1384.9 114.882 1386.53 119.497C1387.68 122.777 1388.84 126.531 1387.57 129.217Z" fill="#809293"/>
</g>
<path d="M1445.32 146.426C1429.21 140.975 1413.02 135.886 1396.72 131.304C1379.73 138.861 1363.06 147.6 1346.78 157.416C1336.14 175.916 1327.88 196.594 1322.06 218.357C1328.94 281.798 1344.25 342.393 1359.19 403.237C1371.93 455.149 1384.99 507.173 1399.72 557.936C1406.71 582.055 1413.95 606.318 1420.88 630.622C1429.05 628.299 1437.18 625.863 1445.32 623.403V146.426Z" fill="#7A8A8B"/>
<g opacity="0.5">
<path d="M1445.32 332.391C1440.02 326.579 1436.67 320.034 1432.7 313.796C1429.39 308.594 1425.07 303.995 1420.34 299.614C1402.06 284.636 1383.57 270.277 1364.95 256.055C1358.76 251.328 1352.12 247.163 1346.27 242.235C1341.78 238.432 1337.2 233.769 1336.11 228.64C1335.42 225.408 1336.08 222.61 1336.64 219.74C1337.3 216.395 1338.06 213.067 1338.83 209.803C1340.3 203.725 1341.94 197.663 1343.07 191.649C1343.25 190.58 1343.49 189.454 1343.68 188.385C1345.28 179.453 1345.17 168.222 1351.75 162.176C1354.42 159.724 1358.82 157.746 1363.15 157.859C1367.22 158.003 1369.42 160.496 1371.63 163.904C1374.4 168.19 1376.5 172.652 1379.3 176.937C1384.21 184.486 1389.26 192.059 1394.27 199.657C1403.87 214.241 1414.3 229.002 1422.22 244.301C1426.1 251.818 1429.38 259.408 1431.63 267.134C1433.89 274.876 1435.44 282.714 1437.05 290.593C1438.6 298.287 1440.33 305.997 1443.02 313.868C1443.82 316.224 1444.63 318.595 1445.31 320.999V250.041C1435.75 234.734 1426.53 218.968 1417.58 203.154C1407.02 184.454 1394.91 165.971 1389.35 144.36C1389.29 144.095 1389.63 143.918 1389.94 144.063C1394.73 146.225 1399.07 149.634 1403.01 153.268C1407.81 157.666 1412.3 162.297 1416.99 166.863C1422.4 172.049 1428.02 177.106 1433.33 182.428C1437.38 186.496 1441.37 190.612 1445.3 194.785V146.426C1429.19 140.975 1413.01 135.886 1396.7 131.304C1379.71 138.861 1363.04 147.6 1346.77 157.416C1336.12 175.916 1327.87 196.594 1322.05 218.357C1328.93 281.798 1344.24 342.393 1359.17 403.237C1371.92 455.149 1384.97 507.173 1399.7 557.936C1406.7 582.055 1413.94 606.318 1420.86 630.622C1429.04 628.299 1437.17 625.863 1445.3 623.403V332.391H1445.32Z" fill="#7A8A8B"/>
</g>
<g opacity="0.6">
<path d="M1445.32 155.853V146.583C1431.75 142 1418.12 137.619 1404.42 133.519C1414 138.608 1423.68 144.042 1433.54 149.413C1437.42 151.535 1441.35 153.698 1445.32 155.853Z" fill="#6E7C7C"/>
<path d="M1445.31 351.014C1445.11 351.078 1444.81 351.062 1444.64 350.869C1435.43 341.656 1431.37 330.095 1425.46 319.9C1421.08 312.319 1417.34 304.641 1413.37 297.1C1398.02 285.057 1381.84 274.71 1366.18 263.671C1356.69 256.966 1347.33 249.851 1338.41 242.72C1334.46 239.56 1330.53 236.36 1326.83 233C1325.62 231.914 1324.39 230.789 1323.15 229.688C1329.78 288.948 1345.22 346.431 1359.19 403.231C1371.95 455.127 1384.99 507.168 1399.72 557.93C1406.72 582.049 1413.96 606.313 1420.88 630.617C1429.06 628.293 1437.19 625.857 1445.32 623.397V351.014H1445.31Z" fill="#6E7C7C"/>
</g>
<path d="M1445.32 370.518C1444.67 369.296 1444.02 368.065 1443.37 366.86C1431.62 344.847 1419.88 322.609 1408.08 300.565C1384.75 282.62 1361.4 264.78 1338.01 246.988C1320.92 243.973 1303.67 242.092 1286.41 241.819C1280.85 254.031 1275.33 266.846 1270.2 280.482C1273.61 407.138 1295.95 532.002 1317.62 655.081C1360.56 646.286 1403.09 635.625 1445.31 623.091L1445.32 370.518Z" fill="#768687"/>
<g opacity="0.5">
<path d="M1445.32 370.518C1444.67 369.296 1444.02 368.065 1443.37 366.86C1431.62 344.847 1419.88 322.609 1408.08 300.565C1384.75 282.62 1361.4 264.78 1338.01 246.988C1320.92 243.973 1303.67 242.092 1286.41 241.819C1280.85 254.031 1275.33 266.846 1270.2 280.482C1273.61 407.138 1295.95 532.002 1317.62 655.081C1360.56 646.286 1403.09 635.625 1445.31 623.091L1445.32 370.518ZM1341.87 449.877C1341.08 459.155 1339.87 468.513 1338.62 477.984C1337.32 487.816 1336.2 498.131 1335.1 508.164C1332.79 529.268 1333.85 552.214 1330.75 573.044C1330.64 573.848 1329.57 573.519 1329.37 572.884C1318.64 540.854 1312.76 506.01 1306.75 471.15C1303.06 449.716 1298.65 428.202 1294.77 406.704C1291.21 387.079 1287.97 366.964 1285.54 347.363C1282.46 322.617 1280.12 298.265 1283.76 272.884C1283.97 269.033 1284.35 265.238 1285.08 261.645C1285.86 257.81 1287.35 250.855 1292.63 250.92C1299.56 251.032 1305.16 260.165 1307.93 265.383C1313.36 275.626 1316.62 286.503 1319.67 297.389C1323.16 309.858 1326.82 322.529 1329.72 335.529C1333.69 353.289 1336.56 371.249 1339.13 390.786C1341.71 410.121 1343.6 429.713 1341.87 449.877ZM1386.89 592.959C1386.62 593.682 1385.75 593.618 1385.48 592.894C1366.75 541.77 1363.39 486.481 1360.26 428.459C1357.46 413.57 1354.82 399.002 1356.37 385.431C1356.45 384.989 1357.11 384.941 1357.44 385.286C1359.79 387.811 1362.11 390.512 1364.14 393.326C1373.14 405.86 1379.61 420.178 1384.51 434.577C1389.64 449.7 1393.02 465.401 1393.17 481.312C1393.38 501.218 1391.03 521.639 1390.06 541.497C1389.27 557.705 1392.95 576.582 1386.89 592.959Z" fill="#7A8A8B"/>
</g>
<g opacity="0.5">
<path d="M1445.31 370.516C1444.67 369.294 1444.02 368.064 1443.37 366.858C1431.61 344.846 1419.87 322.608 1408.07 300.563C1384.75 282.619 1361.39 264.779 1338.01 246.987C1334.21 246.344 1330.44 245.749 1326.66 245.194C1327.33 249.705 1327.64 254.223 1328 258.749C1328.65 266.725 1329.56 274.909 1330.39 283.133C1331.22 291.519 1331.86 300.202 1333.5 308.884C1335.18 317.833 1337.44 326.909 1339.69 336.147C1341.75 344.661 1343.81 353.328 1345.18 362.107C1346.59 371.152 1346.9 380.212 1347.39 389.787C1348.35 408.93 1348.6 428.715 1349.29 449.249C1350 470.602 1351.38 492.197 1354.42 513.156C1357.84 536.664 1361.47 560.55 1364.18 584.098C1366.38 603.015 1369.25 622.897 1372.19 643.205C1396.7 637.127 1421.07 630.454 1445.32 623.203V370.516H1445.31ZM1348.25 302.903C1346.54 294.075 1344.65 285.344 1342.36 276.79C1342.23 276.3 1342.85 275.97 1343.28 276.428C1352.27 285.899 1361.31 295.603 1369.44 305.934C1377.21 315.799 1385.06 326.773 1388.25 338.189C1391.32 349.042 1391.03 360.427 1390.06 371.256C1389.06 382.576 1387.71 395.279 1384.32 406.446C1384.19 406.856 1383.42 407.041 1383.13 406.494C1372.56 386.74 1363.03 366.392 1356.68 343.182C1352.9 329.498 1350.3 316.008 1348.25 302.903ZM1386.89 592.957C1386.61 593.681 1385.75 593.617 1385.47 592.893C1366.74 541.769 1363.39 486.48 1360.25 428.458C1357.45 413.569 1354.82 399.001 1356.37 385.43C1356.44 384.988 1357.1 384.94 1357.43 385.285C1359.79 387.81 1362.1 390.511 1364.14 393.325C1373.13 405.859 1379.6 420.177 1384.5 434.576C1389.64 449.699 1393.01 465.4 1393.17 481.311C1393.38 501.217 1391.02 521.638 1390.06 541.496C1389.27 557.704 1392.95 576.581 1386.89 592.957Z" fill="#7A8A8B"/>
</g>
<path opacity="0.5" d="M1294.98 478.147C1292.96 456.239 1289.81 434.29 1286.37 412.607C1282.04 385.506 1277.51 358.468 1272.58 331.487C1278.04 405.621 1288.39 478.492 1299.93 551.38C1299.82 549.716 1299.72 548.067 1299.63 546.484C1298.25 523.852 1297.08 500.738 1294.98 478.147Z" fill="#6B7879"/>
<g opacity="0.5">
<path d="M1445.32 370.515C1444.68 369.293 1444.02 368.063 1443.37 366.857C1431.62 344.844 1419.88 322.606 1408.08 300.562C1384.76 282.617 1361.4 264.777 1338.01 246.985C1326.03 244.911 1314.2 243.376 1302.66 242.54C1307.45 249.711 1312.27 256.939 1316.79 264.351C1323.75 275.864 1329.55 287.513 1333.63 299.999C1338.29 314.269 1341.33 328.893 1344.49 343.887C1344.82 345.383 1345.19 346.902 1345.6 348.438C1345.48 345.817 1345.39 343.116 1345.14 340.631C1342.48 313.924 1336.5 285.391 1333.94 258.571C1333.89 258.08 1334.65 258.024 1334.97 258.474C1335.33 259.005 1335.7 259.576 1336.06 260.106C1346.7 266.321 1356.52 274.047 1365.85 282.384C1367.5 283.863 1369.14 285.367 1370.81 286.846C1378.72 292.828 1386.31 299.412 1392.43 306.849C1393.04 307.46 1393.62 308.087 1394.21 308.714C1398.58 313.489 1402.06 318.876 1403.78 324.56C1405.65 330.807 1406.01 337.094 1406.17 343.357C1406.6 360.015 1406.53 377.397 1407.18 396.025C1407.85 414.588 1409.57 433.915 1412.24 453.822C1414.95 473.985 1417.41 495.137 1416.59 515.389C1416.58 516.129 1415.46 516.298 1415.2 515.486C1406.07 486.181 1398.8 454.939 1390.22 425.04C1388.09 417.595 1385.85 410.198 1383.64 402.866C1385.87 413.294 1387.88 423.874 1389.35 434.631C1390.31 441.714 1390.44 448.732 1390.3 455.848C1392 464.201 1393.01 472.667 1393.17 481.301C1393.36 491.134 1392.8 501.022 1392.06 511.104C1392.16 521.925 1391.81 532.916 1390.95 544.018C1390.66 547.709 1390.4 551.447 1390.17 555.242C1390.49 565.637 1391.06 576.442 1388.73 586.645C1388.51 595.424 1388.37 604.404 1388.39 613.529C1388.39 621.866 1388.18 630.501 1388.24 639.232C1407.35 634.272 1426.36 628.917 1445.3 623.233V370.515H1445.32Z" fill="#7A8A8B"/>
</g>
<path opacity="0.9" d="M1370.97 643.487C1365.7 599.486 1361.37 555.839 1352.37 512.794C1342.78 558.066 1339.53 603.932 1339 650.691C1351.8 647.981 1358.19 646.55 1370.97 643.487Z" fill="#6B7879"/>
<path d="M1445.32 352.913C1431.65 364.441 1418.63 377.16 1405.89 391.495C1407.44 399.8 1409.1 408.201 1410.87 416.788C1422.56 473.491 1434.3 530.179 1445.32 587.116V352.913Z" fill="#768687"/>
<g opacity="0.5">
<path d="M1445.32 510.619C1440.96 494.459 1436.58 478.307 1432.2 462.164C1427.73 445.771 1423.1 429.788 1417.8 414.256C1417.64 414.159 1417.52 414.022 1417.47 413.846C1417.18 412.841 1416.89 411.739 1416.58 410.718C1415.5 407.639 1414.41 404.528 1413.28 401.529C1413.12 401.151 1413.33 400.902 1413.62 400.854C1413.65 400.821 1413.7 400.837 1413.75 400.837C1413.75 400.837 1413.75 400.837 1413.77 400.837C1413.99 400.821 1414.21 400.918 1414.39 401.135C1414.4 401.135 1414.4 401.151 1414.42 401.151C1419.93 410.67 1431.5 420.623 1440.17 430.359C1441.91 432.321 1443.62 434.282 1445.32 436.276V407.679C1443.67 405.227 1442.04 402.767 1440.43 400.331C1437.6 396.014 1432.86 390.185 1433.86 385.441C1434.77 380.996 1439 378.013 1441.83 374.861C1443.01 373.575 1444.16 372.289 1445.32 371.002V352.913C1431.66 364.442 1418.64 377.161 1405.9 391.495C1407.45 399.8 1409.11 408.202 1410.87 416.788C1422.57 473.492 1434.31 530.179 1445.32 587.116V510.619H1445.32Z" fill="#809293"/>
</g>
<g opacity="0.5">
<path d="M1445.32 543.138C1443.66 539.617 1442.04 536.104 1440.45 532.542C1436.31 523.248 1432.52 513.697 1428.93 504.339C1434.58 531.802 1440.02 559.33 1445.32 586.914V543.138Z" fill="#7A8A8B"/>
</g>
<g opacity="0.4">
<path d="M1249.11 73.1982C1245.6 81.463 1240.66 88.956 1237.49 97.5343C1236.36 100.565 1235.28 103.628 1234.25 106.724C1232.73 127.329 1233.1 148.192 1235.76 168.605C1237.81 184.467 1241.63 200.562 1246.22 217.044C1245.78 169.071 1251.34 121.131 1249.11 73.1982Z" fill="#7A8A8B"/>
</g>
<g opacity="0.4">
<path d="M1273.64 86.043C1273.42 86.2038 1273.16 86.3967 1272.95 86.6218C1271.96 91.6144 1271.26 96.7116 1270.8 101.913C1270.71 106.769 1270.91 111.714 1270.8 116.473C1270.77 117.51 1270.74 118.531 1270.7 119.536C1270.48 121.53 1270.26 123.492 1270.09 125.485C1270.15 129.787 1270.3 134.136 1270.51 138.47C1271.2 153.431 1273.21 168.996 1277.44 184.963C1278.24 186.908 1279.12 188.846 1280.06 190.759C1281.56 187.286 1282.66 183.644 1283.62 179.97C1284.92 175.026 1286.44 170.266 1287.9 165.491C1288.34 160.12 1288.96 154.935 1289.3 149.725C1284.65 128.275 1279.09 107.171 1273.64 86.043Z" fill="#7A8A8B"/>
</g>
<g opacity="0.4">
<path d="M1358.1 164.523C1357.75 163.848 1356.81 164.21 1356.54 164.395C1351.51 168.278 1349.93 175.216 1349.92 182.315C1346.7 194.672 1343.47 207.278 1342.66 221.195C1342.45 224.949 1342.92 228.776 1345.23 232.659C1347.49 236.486 1351.25 240.104 1354.63 243.368C1361.91 250.419 1369.09 258.917 1378.3 264.207C1379.5 264.898 1380.53 263.057 1380.48 262.326C1379.88 254.913 1376.25 247.3 1373.4 239.951C1369.96 231.108 1367.31 222.24 1365.09 213.557C1362.77 204.48 1361.73 195.894 1360.99 187.211C1360.63 183.111 1360.34 179.019 1360.12 174.951C1359.92 171.59 1359.84 167.948 1358.1 164.523Z" fill="#525C5C"/>
</g>
<path d="M276.375 776.504C276.769 701.759 285.95 627.344 297.736 554.377C303.895 549.287 306.926 546.747 312.923 541.642C313.952 496.467 314.507 450.882 318.495 405.957C326.727 391.718 330.723 384.66 338.497 370.767C341.167 370.236 342.509 369.979 345.154 369.416C354.03 336.598 362.592 302.02 376.838 272.362C376.838 272.362 377.57 269.757 380.111 271.469C382.643 273.117 406.175 291.158 417.117 313.131C419.835 337.402 421.274 349.856 424.305 375.639C424.305 375.639 435.488 384.29 437.876 389.13C451.101 415.636 460.129 455.706 466.063 489.939C466.063 489.939 476.128 474.768 477.117 475.54C489.707 485.308 498.084 530.008 505.449 558.01C505.449 558.01 524.808 571.123 527.132 575.473C559.732 636.477 565.489 767.91 582.308 862.014C478.661 842.815 376.991 813.88 276.375 776.504Z" fill="#748384"/>
<path d="M371.444 584.558C367.69 563.703 365.897 553.533 362.424 533.683C347.647 517.821 340.459 510.537 326.486 495.744C321.245 513.455 318.543 522.5 312.915 541.642C306.918 546.747 303.887 549.288 297.729 554.377C285.942 627.345 276.761 701.76 276.367 776.504C324.573 794.393 372.98 810.52 421.893 824.855C408.756 746.782 395.869 668.644 383.479 590.37C378.656 588.047 376.252 586.897 371.444 584.558Z" fill="#677475"/>
<path d="M448.601 546.185C443.479 549.103 440.899 550.566 435.729 553.485C434.427 644.791 432.746 736.089 430.769 827.38C481.016 841.103 531.449 852.648 582.316 862.006C565.497 767.902 559.66 636.35 527.14 575.465C524.816 571.116 505.457 558.003 505.457 558.003C498.093 530.009 489.587 485.188 477.125 475.532C476.12 474.761 466.071 489.931 466.071 489.931C459.856 496.162 456.713 499.273 450.361 505.536C449.694 521.182 449.332 529.302 448.601 546.185Z" fill="#5D6869"/>
<path d="M387.542 417.343C378.996 426.203 374.646 430.657 365.763 439.621C364.838 472.013 363.905 504.421 362.965 536.853C366.237 555.472 367.925 565.007 371.439 584.56C376.246 586.899 378.642 588.049 383.474 590.373C395.863 668.647 408.759 746.784 421.887 824.857C425.417 825.878 427.21 826.377 430.755 827.381C432.733 736.091 434.413 644.793 435.716 553.487C440.885 550.568 443.466 549.105 448.587 546.187C449.142 533.532 449.399 527.237 449.93 515.395C442.573 492.048 439.06 480.72 432.315 458.675C417.313 445.048 402.375 431.292 387.542 417.343Z" fill="#677475"/>
<path d="M466.068 489.939C460.135 455.706 451.09 415.636 437.881 389.13C435.485 384.29 424.31 375.639 424.31 375.639C421.279 349.856 419.84 337.402 417.123 313.131C406.189 291.166 382.657 273.117 380.116 271.469C377.576 269.757 376.844 272.362 376.844 272.362C362.598 302.02 354.027 336.598 345.16 369.416C342.515 369.979 341.172 370.228 338.503 370.767C330.72 384.668 326.733 391.718 318.5 405.957C314.513 450.882 313.958 496.467 312.929 541.642C318.548 522.499 321.25 513.455 326.5 495.743C340.465 510.536 347.66 517.82 362.437 533.682C362.654 534.937 362.766 535.58 362.984 536.858C363.916 504.434 364.849 472.026 365.781 439.627C374.665 430.662 379.015 426.2 387.561 417.349C402.394 431.289 417.332 445.045 432.334 458.681C439.087 480.725 442.592 492.045 449.948 515.4C450.109 511.445 450.206 509.467 450.367 505.552C456.71 499.281 459.845 496.169 466.068 489.939Z" fill="#728182"/>
<path d="M382.913 428.704C377.495 434.323 374.745 437.153 369.214 442.789C368.683 466.088 368.153 489.395 367.622 512.71C375.011 533.316 378.853 544.619 386.869 567.179C391.58 591.233 396.372 615.272 401.212 639.27C401.043 587.245 400.882 535.229 400.681 483.188C393.261 460.75 389.723 449.88 382.913 428.704Z" fill="#849697"/>
<path d="M429.655 467.19C422.669 485.544 419.059 494.903 411.542 514.077C413.906 536.797 416.229 559.517 418.609 582.229C422.331 543.88 426.029 505.531 429.655 467.19Z" fill="#748384"/>
<path d="M474.016 484.439C466.587 493.733 462.817 498.428 455.139 507.867C457.752 512.434 459.062 514.733 461.739 519.348C466.796 505.15 469.24 498.179 474.016 484.439Z" fill="#707E7F"/>
<path d="M481.432 526.71C480.267 538.271 479.664 544.108 478.434 555.999C482.1 587.892 485.742 619.786 489.392 651.671C492.358 624.818 495.253 597.966 498.05 571.105C491.209 552.984 487.896 544.108 481.432 526.71Z" fill="#707E7F"/>
<path d="M452.955 520.469C452.875 521.506 451.773 556.189 451.773 556.189C446.829 556.551 444.336 556.736 439.424 557.081C438.636 585.252 437.792 613.423 436.956 641.594C444.521 616.438 452.006 591.25 459.379 566.005C456.75 547.313 455.415 537.706 452.955 520.469Z" fill="#707E7F"/>
<path d="M339.036 372.909C332.081 386.174 328.512 392.879 321.172 406.53C320.078 439.943 318.985 473.348 317.899 506.761C324.17 472.809 330.361 438.85 336.415 404.85C339.494 391.818 340.989 385.41 343.9 372.772C341.954 372.828 340.989 372.86 339.036 372.909Z" fill="#849697"/>
<path d="M377.495 277.121C364.953 318.195 350.772 359.68 342.74 402.708C342.41 432.656 342.089 462.595 341.783 492.543C347.829 471.27 353.77 449.957 359.615 428.604C368.073 416.166 372.205 410.04 380.213 397.892C382.006 369.343 383.726 340.795 385.406 312.238C382.142 297.943 380.574 290.941 377.495 277.121Z" fill="#849697"/>
<path d="M410.224 311.733C410.313 310.913 391.331 313.631 391.331 313.631C392.658 343.98 394.008 374.386 395.439 404.72C400.52 373.775 405.449 342.758 410.224 311.733Z" fill="#849697"/>
<path d="M450.365 505.541C456.716 499.278 459.86 496.167 466.074 489.936C460.141 455.704 451.096 415.634 437.887 389.127C435.492 384.287 424.316 375.637 424.316 375.637C427.355 404.716 430.451 433.796 433.618 462.867C439.881 483.328 443.161 493.804 449.947 515.39C450.1 511.434 450.204 509.449 450.365 505.541Z" fill="#566161"/>
<path d="M555.721 716.782C546.886 670.007 543.091 605.746 527.132 575.477C524.849 571.127 505.449 558.015 505.449 558.015C514.968 605.69 524.648 653.301 534.271 700.903C534.271 700.903 544.964 708.863 555.721 716.782Z" fill="#535D5E"/>
<path d="M416.628 793.589C405.3 725.911 394.198 658.201 383.481 590.37C378.649 588.047 376.253 586.897 371.445 584.558C372.161 638.56 372.892 692.562 373.672 746.549C387.911 762.33 402.253 778 416.628 793.589Z" fill="#728182"/>
<path opacity="0.5" d="M309.926 549.055C305.778 552.319 303.712 553.951 299.507 557.223C292.07 605.992 284.336 655.54 281.98 705.233C290.744 682.135 294.981 670.848 303.173 648.707C304.918 615.447 306.928 582.17 309.926 549.055Z" fill="#92A2A2"/>
<path opacity="0.5" d="M325.646 503.73C321.458 520.204 319.303 528.822 314.833 546.582C312.992 580.276 311.191 613.978 309.374 647.688C323.443 663.551 330.655 671.606 345.432 687.871C338.558 626.536 332.15 565.121 325.646 503.73Z" fill="#92A2A2"/>
<path d="M354.194 224.895C354.122 224.847 354.065 224.782 353.993 224.75C342.247 217.121 330.228 209.346 318.377 202.513C312.685 199.216 307.058 195.775 301.695 191.627C277.021 192.133 252.645 194.216 228.052 196.539C212.994 215.875 199.31 236.456 185.755 257.528C166.894 316.193 148.299 375.188 130.772 434.304C112.434 496.169 94.8751 559.135 79.2621 622.134C70.6194 657.01 62.8853 692.642 55.1029 728.016C54.2186 732.1 53.3101 736.257 52.3936 740.405C157.03 764.211 261.706 781.15 367.877 787.277C366.631 661.842 364.436 536.351 361.068 411.061C359.388 348.987 358.037 286.857 354.194 224.895Z" fill="#7D8E8E"/>
<g opacity="0.7">
<path d="M221.498 263.282C221.57 262.792 221.642 262.309 221.699 261.771C221.562 262.494 221.441 263.153 221.305 263.877C221.369 263.676 221.441 263.491 221.498 263.282Z" fill="#809293"/>
</g>
<g opacity="0.7">
<path d="M361.068 411.077C359.404 348.987 358.037 286.857 354.194 224.895C354.122 224.847 354.065 224.782 353.993 224.75C342.247 217.121 330.228 209.346 318.377 202.513C312.685 199.216 307.058 195.775 301.695 191.627C277.021 192.133 252.645 194.216 228.052 196.539C212.994 215.875 199.31 236.456 185.755 257.528C166.894 316.193 148.299 375.188 130.772 434.304C112.434 496.169 94.8751 559.135 79.2621 622.134C70.6194 657.01 62.8853 692.642 55.1029 728.016C54.2186 732.1 53.3101 736.257 52.3936 740.405C157.03 764.211 261.706 781.15 367.877 787.277C366.631 661.858 364.436 536.367 361.068 411.077ZM237.096 300.138C230.528 328.293 219.546 352.364 205.71 376.266C205.573 376.531 205.251 376.547 205.147 376.33C201.682 370.549 197.694 364.93 195.941 357.798C193.98 349.743 195.998 340.666 197.863 332.168C198.193 330.689 198.514 329.218 198.868 327.754C193.505 338.873 188.103 350.177 182.282 361.545C167.875 389.684 152.246 417.445 139.519 446.83C139.294 447.344 138.643 447.207 138.812 446.629C147.776 415.885 156.419 384.37 164.892 353.152C169.057 337.715 173.053 322.529 176.896 307.695C180.24 294.695 182.821 281.39 187.275 269.081C191.873 256.459 199.149 246.264 206.361 236.215C211.313 229.309 216.33 222.62 221.315 216.067C223.952 211.501 226.87 207.184 230.078 203.397C230.231 203.212 230.52 203.22 230.552 203.461C231.726 208.944 230.054 214.926 229.025 220.827C227.762 228.047 226.5 235.355 225.214 242.687C224.908 244.383 224.611 246.112 224.297 247.808C223.735 251.973 223.107 256.113 222.521 260.326C227.007 247.736 232.273 235.741 239.082 225.249C239.235 225.048 239.557 224.951 239.605 225.249C239.975 227.042 240.385 228.875 240.626 230.732C243.89 253.444 242.057 278.849 237.096 300.138Z" fill="#809293"/>
</g>
<g opacity="0.7">
<path d="M361.068 411.077C359.404 348.987 358.037 286.857 354.194 224.895C354.122 224.847 354.066 224.782 353.993 224.75C342.247 217.121 330.228 209.346 318.378 202.513C312.686 199.216 307.058 195.775 301.696 191.627C277.022 192.133 252.646 194.216 228.052 196.539C228.028 196.571 228.028 196.587 227.996 196.62C229.371 198.396 231.035 199.86 232.635 201.299C235.087 203.51 237.435 205.946 239.203 209.169C243.231 216.437 244.509 225.779 246.15 234.92C248.16 246.039 250.121 257.391 250.796 269.636C251.086 275.175 251.174 280.738 250.644 286.519C250.161 291.64 249.55 296.882 249.88 301.923C252.919 270.094 252.702 239.479 252.766 207.955C252.766 207.545 253.16 207.449 253.329 207.658C259.053 214.299 262.052 224.316 265.477 233.674C269.247 243.973 273.492 253.991 277.424 264.828C278.654 268.253 279.996 272.458 278.284 276.606C276.604 280.779 273.436 283.609 270.566 286.246C266.739 289.775 263.065 293.706 259.319 297.549C255.395 301.585 251.408 305.685 247.629 310.172C239.34 320.076 232.723 332.168 225.994 344.453C223.011 349.887 219.956 355.129 217.504 361.079C215.454 366.039 213.549 371.313 210.847 375.952C208.982 379.16 206.12 382.858 203.081 381.797C201.111 381.138 199.399 379.642 197.526 378.637C195.733 377.681 193.908 376.844 192.051 376.016C190.797 375.47 189.518 374.899 188.216 374.336C177.491 388.735 166.243 403.48 156.419 420.315C150.22 430.895 145.043 442.126 140.091 453.961C135.403 465.216 130.732 476.729 124.992 487.8C124.703 488.346 124.1 488.21 124.22 487.583C128.546 465.57 135.733 444.024 140.782 422.405C144.585 406.093 147.801 389.603 151.362 373.822C153.468 364.544 155.511 355.403 157.488 346.406C148.436 375.647 139.439 405.007 130.756 434.312C112.418 496.177 94.8594 559.143 79.2464 622.142C70.6038 657.018 62.8697 692.65 55.0873 728.024C54.2029 732.109 53.2944 736.265 52.3779 740.413C157.014 764.219 261.69 781.158 367.862 787.285C366.632 661.858 364.437 536.367 361.068 411.077ZM304.051 272.425C303.657 275.77 303.119 279.613 301.221 282.29C301.093 282.459 300.843 282.475 300.755 282.29C290.456 261.339 281.122 238.434 270.1 217.426C265.903 212.233 261.336 207.344 258.539 200.784C258.466 200.567 258.595 200.205 258.772 200.157C264.062 198.79 269.344 198.702 274.505 199.2C278.549 199.578 282.553 200.27 286.484 201.323C289.765 202.199 293.222 203.051 296.212 204.9C298.327 206.187 300.16 208.108 301.189 210.962C302.62 214.934 302.805 219.581 303.215 224.059C303.826 230.595 304.469 237.155 304.702 243.861C304.871 248.668 304.614 253.564 304.614 258.453C304.622 262.955 304.598 267.714 304.051 272.425ZM344.33 295.556C338.3 290.314 333.147 283.07 327.905 276.807C325.429 273.84 322.84 271.01 320.846 267.545C319.142 264.611 317.96 261.218 316.947 257.825C314.768 250.493 313.385 242.719 312.557 234.961C312.372 233.313 312.203 231.664 312.083 230.016C310.893 222.555 310.177 215.022 309.928 207.433C309.912 207.103 310.266 206.918 310.427 207.055C320.774 215.955 329.858 229.325 335.743 244.785C341.267 259.216 345.479 276.96 344.836 295.145C344.828 295.507 344.539 295.716 344.33 295.556Z" fill="#809293"/>
</g>
<path d="M376.639 342.426C354.852 319.376 332.638 299.606 306.791 284.83C292.191 291.615 277.502 299.526 262.572 308.128C248.31 325.43 235.181 344.275 223.098 364.221C204.808 422.292 191.221 482.115 177.955 542.299C167.27 590.754 157.382 639.828 149.672 688.975C146.03 712.073 142.854 735.645 139.518 758.992C226.024 775.514 312.732 785.37 400.139 788.594C396.963 692.006 392.799 595.466 387.404 499.102C384.478 446.772 381.559 394.531 376.639 342.426Z" fill="#7A8A8B"/>
<g opacity="0.5">
<path d="M387.412 499.102C384.486 446.764 381.559 394.523 376.639 342.426C354.852 319.376 332.638 299.606 306.791 284.83C292.191 291.615 277.502 299.526 262.572 308.128C248.31 325.43 235.181 344.275 223.098 364.221C204.808 422.292 191.221 482.115 177.955 542.299C167.27 590.754 157.382 639.828 149.672 688.975C146.03 712.073 142.854 735.645 139.518 758.992C226.024 775.514 312.732 785.37 400.139 788.594C396.971 692.006 392.799 595.474 387.412 499.102ZM276.095 424.663C274.359 432.799 272.164 440.911 269.969 449.112C267.846 457.087 265.804 465.143 264.317 473.544C263.095 480.346 261.809 487.348 259.123 493.66C258.93 494.134 258.488 493.893 258.432 493.483C257.29 486.335 257.885 478.834 257.901 471.591C257.917 465.794 257.041 460.472 255.803 455.326C250.521 437.036 243.904 420.531 237.288 404.765C235.077 399.475 232.279 394.716 230.301 389.361C228.774 385.213 227.479 380.3 228.701 375.308C229.473 372.18 230.969 369.576 232.432 366.89C234.144 363.731 235.913 360.676 237.658 357.645C240.954 351.945 244.33 346.357 247.394 340.641C247.924 339.62 248.495 338.583 249.018 337.562C253.504 329.032 257.532 318.371 264.293 313.001C267.002 310.822 270.749 309.182 273.691 309.592C276.441 309.953 277.044 312.526 277.261 315.951C277.566 320.333 277.309 324.819 277.566 329.217C278.009 336.991 278.483 344.854 278.829 352.837C279.528 368.128 280.445 384.023 279.319 400.4C278.829 408.455 277.8 416.559 276.095 424.663ZM319.871 400.448C318.697 406.397 316.366 411.784 313.777 416.985C310.561 423.473 307.241 430.018 303.888 436.586C296.572 450.872 288.798 465.215 281.385 480.474C281.2 480.836 280.702 480.804 280.686 480.306C280.509 473.568 281.466 466.799 282.623 460.239C283.781 453.719 284.915 447.287 285.992 440.927C287.616 431.441 289.746 422.275 291.797 413.215C291.973 394.482 292.472 376.265 292.978 358.569C293.565 337.859 292.625 316.988 296.805 297.709C296.862 297.412 297.167 297.283 297.32 297.428C299.804 299.912 301.444 303.787 302.763 307.606C304.363 312.253 305.633 317.181 307.04 322.101C308.624 327.705 310.4 333.236 311.791 339.105C313.383 345.714 314.75 352.531 315.98 359.518C317.194 366.738 318.335 374.118 319.421 381.627C320.313 387.793 321.165 393.871 319.871 400.448Z" fill="#7A8A8B"/>
</g>
<g opacity="0.6">
<path d="M387.413 499.103C384.487 446.765 381.56 394.523 376.64 342.426C357.176 319.907 334.963 301.601 311.278 287.483C315.981 293.184 320.499 299.35 325.058 305.573C328.668 310.501 332.318 315.461 336.064 320.414C339.489 324.908 342.97 329.442 345.905 334.781C348.284 339.146 350.391 343.986 351.524 349.461C353.004 356.713 353.808 364.519 354.756 372.181C356.75 388.092 358.342 404.525 359.829 421.456C361.252 437.849 362.748 454.604 364.838 471.784C366.856 488.322 368.97 505.422 368.713 523.254C368.673 523.849 368.166 524.042 367.957 523.536C365.57 517.192 364.211 510.077 362.965 503.235C361.598 495.742 359.966 488.523 358.326 481.376C354.555 464.983 350.511 449.233 347.062 433.636C343.565 417.887 340.172 402.531 336.426 387.802C333.644 376.86 332.261 364.825 328.266 355.097C328.764 375.727 332.535 396.188 334.963 417.766C335.566 423.217 336.12 428.74 336.466 434.32C336.755 439.111 337.125 443.991 336.41 448.879C334.914 459.371 330.661 468.834 326.931 478.481C326.802 478.843 326.368 478.827 326.248 478.465C322.927 466.293 323.747 453.044 322.903 440.59C322.654 442.142 322.365 443.67 322.115 445.205C321.424 449.394 320.684 453.703 320.322 458.004C320.089 460.706 319.937 463.439 319.149 466.012C318.481 468.239 317.099 469.589 315.547 470.49C313.336 471.776 311.085 472.797 308.85 474.196C303.608 477.492 298.286 480.773 292.996 484.246C287.304 487.968 281.539 491.578 275.743 495.268C271.24 498.114 266.593 500.807 262.18 504.2C260.427 505.551 257.895 508.019 255.748 508.333C254.212 509.305 252.645 510.23 251.117 511.098C250.94 511.195 250.619 511.163 250.57 510.849C248.633 499.843 250.587 487.518 250.964 476.351C251.214 468.046 251.913 459.829 252.395 451.725C247.708 437.182 240.939 424.841 235.15 412.283C231.565 404.492 228.067 396.702 224.86 388.968C223.429 385.527 222.03 382.062 220.792 378.54C220.406 377.359 220.004 376.201 219.57 375.035C203.104 429.793 190.378 485.926 177.948 542.316C167.264 590.771 157.375 639.845 149.665 688.992C146.023 712.089 142.847 735.662 139.511 759.009C226.017 775.53 312.725 785.387 400.132 788.611C396.973 692.006 392.8 595.474 387.413 499.103Z" fill="#6E7C7C"/>
</g>
<path d="M243.594 526.549C244.969 502.446 246.424 478.359 247.654 454.256C240.218 433.321 231.969 412.884 222.981 392.954C212.4 388.058 201.45 384.521 190.275 382.688C182.011 393.412 173.577 404.596 165.127 416.494C125.717 522.28 95.2869 631.619 70.79 744.641C123.008 755.928 175.249 766.203 227.885 773.969C233.585 691.555 238.803 609.068 243.594 526.549Z" fill="#768687"/>
<g opacity="0.5">
<path d="M243.594 526.549C244.969 502.446 246.424 478.359 247.654 454.256C240.218 433.321 231.969 412.884 222.981 392.954C212.4 388.058 201.45 384.521 190.275 382.688C182.011 393.412 173.577 404.596 165.127 416.494C125.717 522.28 95.2869 631.619 70.79 744.641C123.008 755.928 175.249 766.203 227.885 773.969C233.585 691.555 238.803 609.068 243.594 526.549ZM139.031 603.119C134.898 611.303 130.943 619.761 126.786 628.162C118.369 645.029 112.347 664.341 103.294 681.674C102.957 682.301 102.418 681.722 102.482 681.16C106.309 650.488 113.593 620.581 121.384 590.32C126.449 570.598 130.967 551.327 135.927 532.772C140.888 514.176 146.009 496.183 151.018 478.866C157.867 455.31 166.116 432.027 177.05 411.003C178.578 407.482 180.258 404.049 182.059 400.825C184.012 397.384 187.574 391.137 191.111 391.748C195.742 392.552 196.088 401.669 196 406.839C195.782 416.985 193.845 427.565 191.771 438.105C189.399 450.164 187.051 462.457 184.085 474.959C180.065 492.011 175.338 509.408 169.879 527.2C164.492 544.815 158.712 562.486 150.648 579.603C146.966 587.465 143.018 595.264 139.031 603.119ZM171.229 619.825C164.749 637.223 156.517 653.865 149.225 671.737C143.493 685.79 139.626 703.003 131.015 714.95C130.653 715.481 130.147 715.135 130.211 714.444C135.405 662.355 152.055 614.149 169.573 564.922C173.127 551.118 176.696 537.676 182.71 525.777C182.895 525.383 183.321 525.48 183.409 525.874C183.956 528.543 184.43 531.461 184.648 534.42C185.709 547.484 184.463 561.851 182.316 575.921C180.065 590.713 176.552 605.458 171.229 619.825Z" fill="#7A8A8B"/>
</g>
<g opacity="0.5">
<path d="M211.858 402.94C209.261 410.553 206.769 418.344 204.196 426.182C201.559 434.174 198.705 442.374 196.51 450.743C194.243 459.346 192.281 468.157 190.287 477.105C188.446 485.346 186.541 493.78 184.185 502.165C181.749 510.8 178.654 519.281 175.454 527.916C169.087 545.145 162.181 562.591 155.5 580.704C148.867 598.729 142.331 617.413 137.001 637.247C131.526 657.628 126.292 678.7 120.23 700.31C115.535 717.049 111.346 734.479 107.117 752.335C147.291 760.672 187.473 767.988 227.881 773.97C233.581 691.547 238.799 609.06 243.59 526.549C244.965 502.446 246.42 478.36 247.65 454.257C240.214 433.322 231.965 412.885 222.977 392.954C220.717 391.917 218.426 390.928 216.095 390.004C214.84 394.321 213.313 398.638 211.858 402.94ZM171.225 619.825C164.745 637.223 156.513 653.865 149.221 671.737C143.489 685.791 139.621 703.004 131.011 714.951C130.649 715.481 130.143 715.135 130.207 714.444C135.401 662.355 152.051 614.149 169.569 564.923C173.123 551.119 176.692 537.676 182.706 525.778C182.891 525.384 183.317 525.48 183.405 525.874C183.952 528.543 184.426 531.462 184.644 534.42C185.705 547.485 184.459 561.851 182.312 575.921C180.061 590.714 176.548 605.458 171.225 619.825ZM215.202 421.535C217.51 431.633 219.648 442.197 220.894 453.332C222.06 463.977 222.824 475.835 220.468 487.388C218.241 498.378 213.739 509.087 209.052 519.386C204.172 530.127 198.705 541.149 192.41 550.524C192.161 550.869 191.646 550.853 191.662 550.29C192.08 528.181 194.404 506.86 198.52 486.552C201.302 473.013 204.702 459.949 208.369 447.262C210.612 438.66 212.718 430.162 214.479 421.744C214.575 421.254 215.09 421.029 215.202 421.535Z" fill="#7A8A8B"/>
</g>
<path opacity="0.5" d="M111.572 593.798C117.81 574.197 123.181 554.983 128.455 536.315C135.321 511.963 141.921 487.45 148.176 462.824C126.557 526.024 107.68 590.221 90.998 655.888C91.4724 654.522 91.8904 653.139 92.3487 651.788C98.893 631.954 105.558 612.715 111.572 593.798Z" fill="#6B7879"/>
<g opacity="0.5">
<path d="M199.945 442.463C197.581 456.468 194.035 470.618 190.506 485.113C190.136 486.577 189.815 488.048 189.493 489.543C190.393 487.091 191.334 484.615 192.106 482.211C200.419 456.709 207.438 428.997 215.863 403.479C216.008 402.988 216.53 403.053 216.563 403.511C216.587 404.058 216.619 404.628 216.667 405.175C221.37 412.322 224.843 420.973 227.649 430.235C228.148 431.899 228.638 433.563 229.137 435.227C231.967 442.101 234.25 449.642 235.271 457.851C235.407 458.542 235.528 459.266 235.649 459.957C236.549 465.36 236.654 471.181 235.504 477.009C234.266 483.433 232.031 489.616 229.723 495.726C223.557 511.99 216.9 528.672 210.34 546.038C203.788 563.339 197.919 581.324 192.323 600.209C186.816 618.861 181.252 638.349 173.647 656.784C173.374 657.443 172.674 657.242 172.811 656.454C177.361 627.343 183.64 597.773 189.284 568.694C190.683 561.49 191.977 554.278 193.296 547.131C190.868 557.068 188.247 567.102 185.28 577.143C183.351 583.72 180.915 590.095 178.318 596.406C176.437 604.293 174.089 612.124 171.235 619.818C167.963 628.581 164.249 637.183 160.438 645.802C156.9 655.321 153.041 664.832 148.933 674.19C147.566 677.301 146.208 680.453 144.857 683.677C141.721 692.77 138.634 702.24 134.1 710.199C131.206 717.612 128.384 725.193 125.602 732.936C123.102 739.986 120.376 747.166 117.812 754.546C154.36 762.321 191.045 768.784 227.874 773.97C233.574 691.547 238.792 609.061 243.584 526.55C244.959 502.447 246.414 478.36 247.644 454.257C240.207 433.322 231.958 412.885 222.97 392.955C215.775 389.643 208.442 386.973 200.974 384.996C201.528 392.167 202.051 399.427 202.268 406.912C202.574 418.473 201.995 430.186 199.945 442.463Z" fill="#7A8A8B"/>
</g>
<path d="M352.265 501.159C338.911 493.497 325.686 486.494 312.589 479.837C300.875 484.388 289.081 490.265 277.19 496.608C254.157 508.885 232.12 523.911 211.233 541.55C209.087 549.557 206.972 557.726 204.882 566.014C188.585 631.136 174.154 696.956 160.262 762.986C229.322 775.206 298.431 783.286 368.095 787.306C365.594 691.634 360.811 596.252 352.265 501.159Z" fill="#768687"/>
<g opacity="0.5">
<path d="M352.265 501.159C338.911 493.497 325.686 486.494 312.589 479.837C300.875 484.388 289.081 490.265 277.19 496.608C254.157 508.885 232.12 523.911 211.233 541.55C209.087 549.557 206.972 557.726 204.882 566.014C188.585 631.136 174.154 696.956 160.262 762.986C229.322 775.206 298.431 783.286 368.095 787.306C365.594 691.634 360.811 596.252 352.265 501.159ZM200.661 732.644C197.501 736.037 193.482 738.425 189.606 739.349C186.704 740.009 183.922 739.615 183.223 734.855C182.829 732.25 183.03 729.316 183.191 726.655C183.464 721.501 183.713 716.388 184.252 711.315C185.426 699.77 187.331 688.563 189.301 677.524C193.232 655.351 197.276 633.933 201.32 613.191C204.488 596.895 207.519 580.968 210.043 565.331C209.971 565.202 209.955 565.05 209.987 564.857C210.188 563.836 210.413 562.782 210.606 561.778C211.104 558.65 211.571 555.563 211.997 552.5C212.053 552.09 212.254 551.937 212.463 551.953C212.495 551.937 212.519 551.969 212.568 551.969C212.72 552.001 212.809 552.154 212.825 552.395C212.849 552.395 212.849 552.411 212.849 552.411C212.809 561.786 215.993 574.52 217.56 585.921C221.315 612.773 221.604 639.087 220.374 665.786C219.265 689.166 215.124 717.192 200.661 732.644ZM298.174 494.172C297.338 497.894 296.301 501.721 295.191 505.428C290.464 521.636 284.145 537.948 278.67 555.217C272.953 573.355 266.876 591.91 261.304 611.278C255.66 630.83 251.254 651.54 245.587 672.299C242.861 682.268 239.806 692.317 237.282 702.664C235.529 709.948 234.339 718.543 230.432 724.178C230.231 724.476 229.773 724.323 229.716 723.897C227.907 713.502 229.531 701.82 229.869 691.328C230.271 677.227 230.432 663.407 230.617 649.892C230.874 628.193 230.488 607.435 229.773 587.319C229.427 577.318 229.089 567.47 228.952 557.782C228.88 553.006 228.221 546.43 230.617 542.161C232.892 538.173 236.574 536.292 239.541 533.904C245.265 529.257 250.941 524.578 256.585 520.068C265.163 513.266 273.709 507.253 282.4 502.059C282.416 501.979 282.497 501.89 282.569 501.842C287.208 497.677 292.474 494.445 297.748 493.473C298.029 493.368 298.294 493.714 298.174 494.172Z" fill="#809293"/>
</g>
<g opacity="0.5">
<path d="M292.36 640.421C287.938 658.197 282.005 675.74 275.22 692.647C264.141 720.255 252.307 747.871 241.3 775.809C283.525 781.051 325.701 784.87 368.094 787.306C365.585 691.634 360.81 596.252 352.264 501.159C338.91 493.497 325.684 486.494 312.588 479.837C309.589 481.019 306.582 482.257 303.608 483.56C302.402 487.282 301.147 490.956 299.853 494.63C297.57 501.038 295.094 507.397 292.609 513.821C288.316 527.151 283.187 540.939 278.669 555.225C272.936 573.363 266.874 591.918 261.303 611.286C255.659 630.838 251.253 651.548 245.585 672.307C242.86 682.276 239.805 692.325 237.28 702.672C235.986 708.043 234.981 714.008 232.987 719.113C240.159 704.481 243.174 686.939 248.247 671.358C254.783 651.307 261.793 632.245 268.675 613.649C275.372 595.592 281.627 577.833 288.686 561.175C295.584 544.846 302.587 528.373 306.454 511.57C306.566 511.055 307.201 511.039 307.217 511.602C308.102 536.871 305.489 563 301.823 588.123C299.347 605.159 296.645 623.072 292.36 640.421ZM302.844 633.925C305.481 617.983 308.214 602.426 310.763 587.118C312.829 574.697 314.614 562.405 316.616 550.409C318.409 539.524 320.427 528.3 324.205 519.159C324.382 518.717 324.864 518.91 324.937 519.344C329.077 543.825 333.105 568.426 336.184 593.132C338.588 612.098 340.429 632.076 340.67 652.69C340.847 667.981 338.532 682.822 332.824 696.048C321.44 722.41 302.305 741.946 286.644 763.806C286.322 764.264 285.832 763.806 285.856 763.195C287.946 720.134 294.78 676.962 302.844 633.925Z" fill="#809293"/>
</g>
<g opacity="0.4">
<path d="M221.57 223.707C216.674 231.248 210.91 238.026 205.997 245.848C204.261 248.614 202.54 251.388 200.844 254.234C193.608 272.572 186.887 291.578 181.396 311.677C177.408 326.277 174.41 341.231 171.7 356.586C188.696 312.376 207.38 269.613 221.57 223.707Z" fill="#7A8A8B"/>
</g>
<g opacity="0.4">
<path d="M235.359 236.277C235.134 236.438 234.901 236.606 234.684 236.807C232.473 241.422 230.407 246.15 228.429 251.005C226.837 255.54 225.374 260.147 223.742 264.665C223.396 265.638 223.026 266.578 222.665 267.535C221.861 269.4 221.057 271.29 220.245 273.139C218.878 277.239 217.519 281.347 216.185 285.463C211.554 299.629 207.55 314.261 204.784 329.32C204.64 331.169 204.551 333.026 204.535 334.875C206.794 331.78 208.869 328.468 210.846 325.123C213.491 320.645 216.241 316.312 218.934 311.994C221.113 307.018 223.396 302.13 225.454 297.169C229.9 276.346 232.778 255.998 235.359 236.277Z" fill="#7A8A8B"/>
</g>
<g opacity="0.4">
<path d="M267.778 315.675C267.803 315.016 267.015 315.281 266.757 315.458C261.877 318.834 258.211 325.395 255.558 332.212C248.724 343.846 241.762 355.672 235.958 368.865C234.358 372.427 233.224 376.101 233.28 380.097C233.337 383.972 234.43 387.871 235.411 391.384C237.533 398.949 238.956 408.026 242.872 414.361C243.394 415.206 244.793 413.525 245.034 412.81C247.575 405.526 248.178 397.655 249.167 390.17C250.357 381.222 252.061 372.282 253.934 363.696C255.864 354.651 258.461 346.282 261.266 337.816C262.577 333.812 263.936 329.841 265.286 325.885C266.412 322.613 267.746 319.084 267.778 315.675Z" fill="#525C5C"/>
</g>
<path d="M104.415 229.182C98.7868 211.455 96.0211 202.804 90.514 185.68C87.081 184.98 85.3606 184.659 81.9437 183.975C81.8392 144.082 81.2603 97.1389 66.9096 60.9363C66.9096 60.9363 66.2744 57.4471 62.6003 59.8912C41.1988 74.2902 19.8455 93.5451 2.27078 115.984C-6.71754 141.928 -17.2495 166.947 -28.9391 191.01C-28.9391 191.01 -47.4866 200.545 -53.243 206.213C-64.7317 217.517 -76.2686 230.412 -87.709 244.072V691.759C-58.308 694.991 -28.7623 697.13 0.96032 698.215C30.9482 606.306 53.0251 509.613 69.3777 412.261C62.8737 404.929 59.706 401.319 53.4271 394.204C72.272 340.563 91.9048 285.99 104.415 229.182Z" fill="#748384"/>
<path d="M53.4193 394.201C53.9258 370.709 54.2795 359.438 54.9468 337.433C32.3554 351.044 9.53082 363.956 -13.5671 375.999C-25.5864 394.137 -37.8066 412.017 -50.1957 429.736C-58.2274 431.023 -62.2874 431.65 -70.4074 432.832C-76.1558 441.201 -81.9363 449.522 -87.7168 457.843V691.982C-58.2836 695.077 -28.7379 697.143 0.952515 698.212C30.9404 606.303 53.0173 509.61 69.3699 412.258C62.8659 404.926 59.6982 401.308 53.4193 394.201Z" fill="#677475"/>
<path d="M4.79546 239.561C-22.1936 254.949 -49.4159 269.661 -77.0321 283.072C-80.5535 287.14 -84.1311 291.176 -87.7168 295.179V457.838C-81.9282 449.517 -76.1477 441.195 -70.4074 432.826C-62.2874 431.652 -58.2274 431.017 -50.1957 429.731C-35.9977 409.431 -29.0997 399.333 -15.8021 379.371C-1.68449 341.986 12.3286 304.586 25.3529 266.542C17.0157 255.311 12.8753 250.037 4.79546 239.561Z" fill="#677475"/>
<path d="M104.415 229.182C98.7868 211.455 96.0211 202.804 90.514 185.68C87.081 184.98 85.3606 184.659 81.9437 183.975C81.8392 144.082 81.2603 97.1389 66.9096 60.9363C66.9096 60.9363 66.2744 57.4471 62.6003 59.8912C41.1988 74.2902 19.8455 93.5452 2.27078 115.984C-6.71754 141.928 -17.2495 166.947 -28.9391 191.01C-28.9391 191.01 -47.4866 200.545 -53.243 206.213C-64.7317 217.517 -76.2686 230.412 -87.709 244.072V295.18C-84.1233 291.176 -80.5457 287.14 -77.0243 283.072C-49.4161 269.662 -22.1939 254.949 4.79523 239.561C12.8751 250.037 17.0155 255.311 25.3526 266.542C12.3284 304.586 -1.68473 341.994 -15.8024 379.379C-14.918 378.012 -14.4758 377.353 -13.5754 376.002C9.52254 363.959 32.3551 351.047 54.9385 337.436C54.2712 359.432 53.9175 370.712 53.411 394.204C72.272 340.563 91.9048 285.99 104.415 229.182Z" fill="#728182"/>
<path d="M6.32301 252.704C-9.94121 273.647 -26.6878 293.939 -43.965 313.46C-58.2997 345.851 -72.948 378.01 -87.7168 410.112V438.155C-79.8781 427.952 -72.0958 417.662 -64.3857 407.266C-46.2804 389.225 -28.5048 370.614 -11.0989 351.415C-0.711685 324.514 9.45847 297.429 19.1623 270.078C13.9768 262.971 11.4362 259.393 6.32301 252.704Z" fill="#849697"/>
<path d="M89.0333 188.282C93.6159 204.611 95.8831 212.867 100.554 229.734C88.4223 270.873 75.4704 311.466 62.0361 351.913C68.4277 310.38 75.0202 268.88 80.3746 227.081C81.3474 211.332 81.7896 203.541 82.4568 188.065C85.0778 188.137 86.3963 188.186 89.0333 188.282Z" fill="#849697"/>
<path d="M65.0711 67.3838C73.3037 117.624 78.8993 173.194 72.5801 224.253C60.9387 260.561 48.1959 296.248 34.9063 331.599C36.2088 305.703 37.5192 279.824 38.7171 253.952C32.3095 239.014 29.1821 231.746 23.0479 217.355C32.0121 183.026 39.6337 148.93 45.8081 113.556C54.2256 95.2814 58.0847 86.084 65.0711 67.3838Z" fill="#849697"/>
<path d="M12.0672 113.955C12.1637 112.918 37.3198 115.555 37.3198 115.555C27.1496 153.357 14.0289 189.737 -0.820312 224.846C4.90392 187.896 9.32573 151.476 12.0672 113.955Z" fill="#849697"/>
<g opacity="0.5">
<path d="M54.3994 403.479C58.8534 408.142 61.0965 410.498 65.6228 415.273C54.0779 478.489 42.2676 542.637 24.2427 603.385C22.3775 577.023 20.5606 550.653 19.1777 524.243C31.7759 484.438 43.7067 444.192 54.3994 403.479Z" fill="#92A2A2"/>
</g>
<g opacity="0.5">
<path d="M52.5034 347.122C50.9035 367.519 50.0915 377.962 48.5157 399.597C35.9096 439.996 23.4883 480.524 10.6651 520.819C-13.0921 533.224 -37.1065 544.544 -61.2979 555.502C-22.3457 486.972 16.333 418.193 52.5034 347.122Z" fill="#92A2A2"/>
</g>
<path d="M272.072 411.113C271.485 356.355 270.142 301.356 265.817 247.072C263.968 224.007 261.62 200.659 258.276 177.819C256.435 165.18 254.32 152.775 253.01 140.008C239.471 128.544 225.57 118.148 212.474 107.777C194.979 93.925 176.4 80.4264 156.011 74.252C143.67 90.3473 131.868 107.134 120.38 124.283C60.2189 316.993 -29.7127 490.32 -87.7188 684.646V711.877C30.641 750.788 151.035 777.448 272.634 792.16C272.9 665.166 273.43 537.85 272.072 411.113Z" fill="#708080"/>
<g opacity="0.7">
<path d="M272.072 411.113C271.485 356.355 270.142 301.356 265.817 247.072C263.968 224.007 261.62 200.659 258.276 177.819C256.435 165.18 254.32 152.775 253.01 140.008C239.471 128.544 225.57 118.148 212.474 107.777C194.979 93.925 176.4 80.4264 156.011 74.252C143.67 90.3473 131.868 107.134 120.38 124.283C60.2189 316.993 -29.7127 490.32 -87.7188 684.646V711.877C30.641 750.788 151.035 777.448 272.634 792.16C272.9 665.166 273.43 537.85 272.072 411.113ZM154.556 374.227C154.5 374.67 154.444 375.088 154.411 375.482C154.114 377.66 151.951 380.209 151.389 377.869C143.904 346.169 133.082 315.763 123.676 285.068C119.206 270.419 115.323 255.345 110.33 242.369C107.323 234.506 103.167 225.502 104.292 214.391C106.592 191.615 112.597 168.895 120.492 148.16C125.316 135.506 132.061 124.291 139.088 114.434C142.416 107.817 146.227 101.9 149.99 96.1118C150.134 95.5811 150.263 95.0264 150.384 94.4797C150.689 93.0567 151.429 92.7029 151.951 93.0567C153.471 90.685 154.95 88.3133 156.365 85.8934C156.912 84.9849 157.676 85.1055 158.021 85.821C198.83 171.54 179.431 283.765 156.558 371.711C156.22 372.989 155.288 374.131 154.556 374.227ZM241.947 375.908C236.561 427.128 227.387 479.949 220.521 531.676C212.876 589.449 205.198 647.776 191.209 703.041C190.477 706.024 188.057 706.466 187.728 703.419C181.256 646.812 180.452 588.444 180.83 530.896C181.151 482.127 179.286 431.574 183.322 384.004C188.5 322.589 200.848 262.372 219.565 203.674C225.225 184.299 231.6 166.008 239.391 149.35C239.873 148.281 240.958 147.758 241.336 148.868C245.147 159.778 244.962 173.895 245.67 187.41C246.658 206.11 247.454 225.357 247.535 245.062C247.728 288.806 246.425 333.169 241.947 375.908Z" fill="#809293"/>
</g>
<g opacity="0.5">
<path d="M193.739 132.159C196.392 148.471 195.154 168.128 194.028 186.378C191.029 235.275 185.08 285.17 181.832 333.898C179.653 366.587 178.496 400.056 177.45 433.22C178.367 449.379 179.557 465.885 180.779 482.993C180.723 449.733 180.634 416.103 183.311 383.993C188.376 322.691 200.838 262.361 219.554 203.664C221.789 195.978 224.169 188.485 226.701 181.153C227.521 178.097 228.341 175.034 229.145 171.979C232.208 160.434 233.688 149.533 239.742 141.324C241.752 138.566 244.019 136.299 246.382 134.515C235.022 125.172 223.445 116.441 212.463 107.775C195.435 94.3082 177.394 81.1875 157.673 74.7236C166.179 84.3793 175.416 92.4109 182.885 104.326C187.58 111.835 191.89 120.735 193.739 132.159Z" fill="#809293"/>
</g>
<path opacity="0.5" d="M261.465 274.024C263.338 333.268 262.695 393.397 257.083 452.095C249.445 532.017 235.046 612.92 223.59 692.826C219.257 723.103 215.06 753.549 210.903 783.931C231.477 786.946 252.034 789.695 272.64 792.156C272.905 665.153 273.436 537.837 272.077 411.108C271.49 356.35 270.147 301.351 265.822 247.067C263.973 224.002 261.625 200.654 258.281 177.814C256.665 166.783 254.872 155.89 253.562 144.827C257.139 187.863 260.106 231.125 261.465 274.024Z" fill="#728182"/>
<path d="M127.528 195.158C125.309 193.671 123.09 192.143 120.967 190.455C94.2999 189.876 67.7208 192.795 41.1176 194.772C22.3129 213.183 3.81364 231.948 -14.4926 251.162C-38.4508 293.073 -63.0762 334.381 -87.7178 375.56V711.247C-27.9349 731.33 32.4911 748.165 93.6808 761.696C100.394 716.883 107.163 672.086 114.077 627.346C118.129 585.314 122.471 543.074 126.193 501.244C135.061 401.624 145.062 294.802 127.528 195.158Z" fill="#657272"/>
<g opacity="0.5">
<path d="M127.528 195.158C125.309 193.671 123.09 192.143 120.967 190.455C94.2999 189.876 67.7208 192.795 41.1176 194.772C22.3129 213.183 3.81364 231.948 -14.4926 251.162C-38.4508 293.073 -63.0762 334.381 -87.7178 375.56V391.293C-72.2575 363.549 -56.7571 335.82 -41.4496 307.93C-41.3692 307.753 -41.3209 307.585 -41.2325 307.384C-35.1385 295.951 -29.4062 283.723 -22.5243 272.773C-21.9615 271.72 -21.4228 270.634 -20.852 269.589C-20.4339 268.801 -19.9676 268.367 -19.5174 268.223C-17.0492 264.597 -14.372 261.027 -11.5099 257.94C4.08699 241.008 20.4879 224.398 37.5159 209.573C38.5047 208.729 39.1077 209.734 39.0032 210.827C37.8857 224.768 31.8801 239.794 26.6382 254.587C19.9814 273.287 12.4643 293.387 4.41663 313.204C-11.7833 352.993 -28.6987 393.537 -49.1757 428.276C-60.6563 447.796 -73.8976 466.303 -87.7178 484.36V711.247C-27.9349 731.33 32.4911 748.165 93.6808 761.696C100.394 716.883 107.163 672.086 114.077 627.346C118.129 585.314 122.471 543.074 126.193 501.244C135.061 401.624 145.062 294.802 127.528 195.158ZM107.485 199.894C104.277 233.041 94.3321 266.044 79.7642 293.242C69.7147 311.942 57.4059 329.203 45.2741 345.99C31.4861 365.084 1.02388 400.258 1.02388 400.258C0.501305 399.727 26.7267 340.62 41.0694 312.215C53.5871 287.389 66.0566 262.032 79.5069 238.363C87.024 225.114 96.3741 207.113 105.933 198.631C106.777 197.868 107.597 198.623 107.485 199.894Z" fill="#809293"/>
</g>
<g opacity="0.5">
<path d="M76.2319 192.045C70.1861 203.413 65.2899 216.662 60.4501 228.504C51.2768 250.959 43.205 274.515 34.3534 297.075C19.9222 333.977 4.55843 370.798 -11.2314 407.073C-5.81272 398.245 -0.458313 389.514 4.59059 380.96C9.95303 371.883 15.3155 362.919 20.5815 354.043C27.2544 339.757 34.2247 325.824 41.0665 312.213C53.5842 287.29 66.0537 262.03 79.504 238.361C86.5789 225.908 95.31 209.233 104.226 200.253C105.368 198.685 106.517 197.134 107.707 195.719C109.339 193.765 110.979 191.972 112.611 190.348C100.632 190.364 88.4763 191.12 76.2319 192.045Z" fill="#809293"/>
</g>
<g opacity="0.5">
<path d="M127.528 195.16C127.262 194.983 126.949 194.758 126.643 194.557C126.812 212.992 122.808 234.055 118.644 254.195C115.717 268.361 112.799 284.11 107.211 298.927C101.704 313.527 94.0103 324.976 85.0782 336.625C61.2808 367.699 36.3579 397.976 10.7195 426.316C-16.7761 456.714 -45.14 487.321 -70.883 520.138C-72.2899 521.931 -74.4606 521.224 -73.7371 518.804C-67.844 499.597 -58.7351 481.765 -51.0331 464.721C-42.1975 445.185 -34.3106 424.692 -26.7935 404.359C-18.2956 381.398 -10.1354 357.85 -3.92876 333.498C-7.89231 343.137 -12.0086 352.906 -16.3581 362.722C-21.8492 378.649 -27.8548 395.371 -35.2271 411.225C-50.3176 443.649 -68.5595 473.991 -87.71 503.175V711.378C-27.8869 731.428 32.531 748.183 93.6887 761.706C100.402 716.893 107.171 672.096 114.085 627.355C118.129 585.316 122.471 543.076 126.193 501.245C135.061 401.626 145.062 294.803 127.528 195.16Z" fill="#809293"/>
</g>
<path d="M164.687 399.626C154.951 397.142 145.167 394.851 135.407 392.857C131.805 392.133 128.147 391.394 124.521 390.75C84.2825 409.282 42.8622 423.255 2.52731 441.481C-27.9349 485.586 -58.1319 530.013 -87.7178 575.011V711.372C-2.88338 739.366 82.8354 760.663 169.736 777.056C176.755 651.822 180.509 524.056 164.687 399.626Z" fill="#768687"/>
<g opacity="0.5">
<path d="M164.688 399.626C154.952 397.142 145.168 394.851 135.408 392.857C131.806 392.133 128.148 391.394 124.522 390.75C84.284 409.282 42.8637 423.255 2.52874 441.481C-27.9335 485.586 -58.1304 530.013 -87.7163 575.011V605.361C-77.5944 587.77 -66.8534 570.67 -56.3376 553.602C-40.0251 527.127 -24.9427 497.766 -5.96113 474.258C9.82874 454.69 30.6434 444.238 50.6943 434.534C69.7724 425.321 89.1399 414.797 108.612 405.752C117.407 400.398 125.841 397.825 132.731 402.722C133.245 403.099 133.631 404.169 133.286 405.294C121.419 443.812 106.972 480.867 90.7076 516.925C78.1577 544.654 62.4081 571.787 40.701 588.076C20.3928 603.311 -2.8337 612.162 -24.4282 623.908C-40.813 632.857 -57.648 641.435 -74.5394 649.177C-78.8727 651.155 -83.3026 652.883 -87.7324 654.765V711.356C-2.89803 739.35 82.8207 760.647 169.721 777.04C176.756 651.822 180.511 524.056 164.688 399.626Z" fill="#7A8A8B"/>
</g>
<g opacity="0.5">
<path d="M164.775 400.603C145.577 446.718 127.592 494.177 108.787 540.075C98.1027 566.139 86.4291 592.429 76.066 618.63C71.2663 630.722 63.7894 655.798 55.1951 662.535C48.5141 667.761 40.5388 667.117 33.7292 669.111C23.7118 672.046 13.5497 674.683 3.43578 677.071C-15.9719 681.709 -35.5083 686.123 -55.1089 689.548C-65.9384 691.445 -76.808 692.941 -87.7178 693.93V711.577C-2.84319 739.547 82.8836 760.675 169.736 777.06C176.73 652.156 180.453 524.751 164.775 400.603ZM147.844 491.427C146.469 503.012 145.038 514.903 143.47 526.962C140.046 553.22 135.64 579.381 129.425 604.263C119.689 643.36 100.072 681.581 72.1507 703.971C70.9528 704.896 69.5217 703.561 69.8111 701.222C74.2249 666.941 85.8824 634.139 96.3179 602.125C102.243 583.891 108.208 565.963 114.367 548.862C124.738 516.591 134.9 484.03 149.074 454.316C150.167 452.025 151.799 453.134 151.816 455.24C151.856 466.761 149.307 478.974 147.844 491.427Z" fill="#7A8A8B"/>
</g>
<path opacity="0.5" d="M169.732 777.057C176.301 659.573 179.621 540.627 167.425 423.529C167.803 468.551 163.767 513.413 158.429 557.422C149.89 628.002 138.185 698.526 123.11 767.9C141.746 771.839 151.08 773.664 169.732 777.057Z" fill="#6B7879"/>
<path d="M1131.72 283.955C1052.37 331.124 973.274 381.219 884.887 409.43C835.306 425.276 784.455 432.56 732.423 432.085C678.975 431.611 625.841 424.986 572.972 417.542C517.796 409.751 462.62 402.484 407.725 392.635C351.882 382.634 296.231 371.45 240.243 362.141C183.644 352.75 127.559 346.142 70.092 348.039C28.8968 349.406 -12.0331 353.562 -52.8584 358.949V742.263H1460.34V170.21C1374.65 186.538 1290.49 210.175 1210.39 245.485C1183.66 257.247 1157.57 270.36 1131.72 283.955Z" fill="#639337"/>
<path d="M1131.72 283.955C1052.37 331.124 973.274 381.219 884.887 409.43C835.306 425.276 784.455 432.56 732.423 432.085C678.975 431.611 625.841 424.986 572.972 417.542C517.796 409.751 462.62 402.484 407.725 392.635C351.882 382.634 296.231 371.45 240.243 362.141C183.644 352.75 127.559 346.142 70.092 348.039C28.8968 349.406 -12.0331 353.562 -52.8584 358.949V742.263H1460.34V170.21C1374.65 186.538 1290.49 210.175 1210.39 245.485C1183.66 257.247 1157.57 270.36 1131.72 283.955Z" fill="#8AC240"/>
<path opacity="0.4" d="M738.253 430.095C720.421 434.364 702.171 436.913 684.467 441.608H719.898C721.265 441.608 721.329 443.369 720.196 443.851C699.815 452.14 677.264 456.602 654.552 458.137C694.203 465.437 734.562 468.388 775.034 469.176C776.441 469.208 776.489 470.953 775.339 471.419C765.073 475.704 754.597 480.005 743.695 481.943C797.448 485.898 851.29 480.375 903.99 469.272C954.109 458.732 1001.59 438.336 1052.1 429.564C1025.17 428.97 998.335 432.595 971.531 434.702C970.116 434.814 970.116 432.909 971.209 432.427C978.292 429.54 985.062 426.003 992.024 422.867C993.536 422.192 995.2 421.348 996.936 420.496C985.391 422.047 973.879 425.649 962.334 426.686C961.24 426.767 960.71 425.006 961.787 424.516C986.919 413.678 1012.32 403.283 1036.91 391.183C1061.29 379.236 1083.63 365.103 1105.96 349.811C1150.13 319.598 1193.96 288.38 1242.68 265.917C1233.47 267.71 1224.48 270.452 1215.12 271.569C1213.97 271.698 1213.59 269.905 1214.57 269.399C1227.85 262.203 1241.08 254.437 1255.5 249.814C1216.29 251.35 1178.55 267.011 1142.28 282.133C1062.99 329.254 983.952 379.349 895.58 407.536C845.992 423.382 795.141 430.682 743.117 430.208C741.484 430.143 739.877 430.127 738.253 430.095Z" fill="#8AC240"/>
<path opacity="0.5" d="M1210.39 245.485C1183.66 257.247 1157.58 270.36 1131.72 283.955C1130.68 284.566 1129.61 285.177 1128.6 285.804C1155.11 272.884 1181.81 260.415 1209.13 249.151C1234.91 238.571 1261.21 228.546 1288.47 222.532C1312.76 217.21 1339.53 213.914 1363.33 222.91C1364.32 223.288 1364.51 224.823 1363.33 225.105C1337.51 231.464 1313.42 242.599 1289.07 253.026C1299.49 251.788 1309.88 250.06 1320.21 248.187C1321.68 247.953 1322.17 249.883 1320.8 250.414C1279.09 266.605 1241 290.395 1201.44 311.089C1218.63 306.144 1236.07 302.454 1253.54 298.764C1254.75 298.483 1255.68 300.275 1254.44 300.87C1179.75 335.883 1099.82 360.886 1029.82 405.185C1045.38 399.059 1061.48 394.54 1077.73 390.673C1079.01 390.392 1079.74 392.056 1078.62 392.78C1071.15 397.378 1063.52 401.623 1056.25 406.455C1142.21 385.793 1228.5 364.215 1317.07 358.45C1318.21 358.386 1318.63 360.05 1317.64 360.589C1305.47 367.149 1293.56 374.184 1280.94 379.812C1291.33 378.067 1301.73 376.306 1312.15 374.618C1313.63 374.369 1314.17 376.298 1312.75 376.797C1256.41 397.772 1198.82 415.596 1144.26 441.13C1189.77 440.093 1256.95 429.022 1278.99 479.68C1279.35 480.54 1278.9 481.312 1277.97 481.425C1247.29 485.276 1216.12 485.212 1185.66 490.55C1189.25 490.188 1192.82 489.81 1196.38 489.448C1197.87 489.304 1197.87 491.619 1196.38 491.756C1129.95 498.035 1064.51 511.115 998.656 521.511C966.32 526.648 933.743 531.705 900.974 532.83C870.118 533.867 839.318 532.235 808.542 530.033C838.514 546.224 871.557 555.599 902.831 568.912C903.756 569.306 903.474 570.81 902.558 571.019C829.22 585.498 757.643 559.715 685.913 548.017C685.037 547.873 684.836 546.667 685.431 546.12C691.324 540.323 697.892 535.475 704.975 531.375C694.532 533.055 685.318 538.611 676.443 544.456C675.55 545.067 674.585 544.094 674.754 543.153C675.743 538.289 676.668 533.417 678.107 528.674C673.347 533.385 670.895 539.592 668.942 546.088C668.724 546.779 667.904 547.125 667.237 546.763C656.134 540.5 647.13 531.046 635.215 526.487C639.508 530.869 643.665 535.395 646.985 540.605C647.516 541.425 646.648 542.599 645.691 542.285C639.934 540.323 634.258 538.08 628.486 536.111C633.808 540.396 639.066 544.89 642.395 550.936C642.901 551.892 642.057 552.753 641.108 552.616C595.346 546.112 552.752 529.06 513.696 504.659C493.999 492.335 474.945 478.659 453.945 468.561C444.024 463.786 433.83 460.305 423.467 456.687C415.475 453.857 400.031 443.59 401.237 443.51C413.892 442.408 426.699 440.672 438.686 436.258C422.944 435.157 348.979 431.233 349.912 430.839C355.853 428.452 403.874 424.89 410.161 423.933C403.36 423.427 392.305 419.712 393.567 419.367C414.856 413.747 432.761 414.061 454.749 414.816C491.836 416.054 528.143 424.255 565.093 427.222C598.868 429.955 632.795 429.891 666.594 432.061C695.175 433.87 723.876 436.162 752.514 434.481C765.265 433.726 778.152 432.206 790.646 429.288C771.383 431.346 751.983 432.27 732.415 432.102C678.967 431.627 625.833 425.003 572.964 417.558C517.788 409.767 462.612 402.5 407.717 392.651C351.874 382.65 296.223 371.467 240.235 362.157C183.636 352.766 127.551 346.158 70.0839 348.055C28.8968 349.406 -12.0331 353.562 -52.8584 358.949V742.263H1460.34V170.21C1374.64 186.538 1290.49 210.167 1210.39 245.485Z" fill="#78AE43"/>
<path opacity="0.5" d="M1406.58 414.353C1374.99 420.479 1344.28 430.07 1313.43 439.002C1343.21 443.826 1373.34 447.782 1403.55 446.6C1422.65 445.844 1441.49 443.32 1460.33 440.506V384.494C1423.8 392.517 1387.69 402.454 1352.52 415.382C1370.5 415.663 1388.31 412.239 1406.28 412.102C1407.56 412.11 1407.88 414.12 1406.58 414.353Z" fill="#78AE43"/>
<path opacity="0.5" d="M1460.33 486.074V477.295C1446.35 477.592 1432.29 480.824 1418.59 484C1432.47 484.113 1446.43 485.206 1460.33 486.074Z" fill="#78AE43"/>
<path opacity="0.5" d="M1304.9 541.226C1237.85 543.421 1171.45 554.869 1104.4 556.758C1067.93 557.795 1031.5 559.572 995.318 563.954C976.417 566.229 957.612 569.059 938.903 572.588C924.416 575.354 910.097 578.417 895.489 580.154C865.365 583.659 835.007 584.519 804.858 587.454C776.607 590.171 747.688 594.255 721.664 606.057C749.795 614.145 779.895 610.077 808.782 611.251C883.309 614.346 957.017 626.108 1031.11 633.802C1103.94 641.352 1175.31 657.278 1247 671.725C1310.04 684.508 1373.74 695.169 1437.87 701.102C1445.25 701.778 1452.78 702.421 1460.33 702.983V541.571C1408.58 543.035 1356.71 539.545 1304.9 541.226Z" fill="#6DA03C"/>
<path opacity="0.5" d="M1256.07 322.023C1288.58 316.782 1320.7 309.425 1353.16 303.806C1370.26 300.887 1387.45 298.29 1404.77 296.932C1421.88 295.517 1439.14 294.857 1456.26 293.257C1457.64 293.145 1458.98 292.976 1460.33 292.831V253.952C1432.81 260.343 1406.03 271.599 1379.43 279.968C1337.81 293.081 1295.71 303.492 1256.07 322.023Z" fill="#78AE43"/>
<path opacity="0.5" d="M1431.1 203.767C1432.32 204.161 1432.11 206.011 1430.78 206.043C1421.05 206.171 1411.61 208.037 1402.49 211.18C1422.21 210.931 1441.43 214.492 1460.32 219.581V170.21C1412.75 179.271 1365.67 190.59 1319.46 204.909C1356.83 199.104 1394.31 191.893 1431.1 203.767Z" fill="#78AE43"/>
<path d="M1452.64 629.393C1395.19 618.636 1337.41 609.768 1279.29 603.497C1217.74 596.84 1155.97 592.724 1094.09 591.092C1030.77 589.444 967.929 594.091 904.665 594.983C845.252 595.844 785.734 589.91 726.956 581.541C668.524 573.204 610.381 561.554 553.927 544.173C442.312 509.771 344.815 446.563 240.372 396.114C147.386 351.221 47.8226 325.784 -52.874 305.291V855.991H1460.32V630.912C1457.77 630.398 1455.25 629.835 1452.64 629.393Z" fill="#9ACA3C"/>
<path opacity="0.6" d="M1342.92 670.587C1330.16 669.052 1316.31 666.849 1304.02 663.127C1303 662.813 1292.5 660.755 1297.48 661.101C1302.45 661.43 1310.11 662.419 1314.91 661.101C1315.31 660.956 1316.76 659.605 1316.06 659.203C1306.55 653.519 1292.37 651.244 1281.7 648.728C1266.51 645.102 1251.42 641.162 1236.07 638.381C1224.54 636.242 1212.88 634.819 1201.22 633.983C1193.9 632.761 1186.61 631.756 1179.33 630.952C1139.88 626.474 1099.86 625.758 1060.25 624.416C1023.19 623.194 986.108 623.676 949.061 622.326C912.859 620.991 877.163 617.1 841.434 610.941C795.182 603.03 749.79 591.518 704.833 578.236C653.877 570.18 603.244 559.359 553.921 544.18C442.306 509.778 344.809 446.571 240.366 396.122C208.553 380.734 175.92 367.718 142.773 356.318C142.114 356.285 141.454 356.253 140.803 356.221C137.941 356.221 134.508 356.35 131.3 357.065C118.413 354.034 105.139 352.089 92.2275 349.998C81.6473 348.27 62.0145 347.482 53.3638 354.895C53.0905 355.16 52.2946 356.101 52.6081 356.591C55.7034 360.989 62.0467 361.977 66.782 364.148C70.7214 365.909 75.7703 367.541 79.8786 369.864C75.5211 369.35 71.1154 368.972 66.7016 369.535C66.2273 369.599 64.8605 371.046 65.5037 371.496C68.3819 373.555 71.5334 373.442 74.8779 374.278C76.1643 374.624 76.8718 374.785 77.2014 374.841C76.9039 374.777 76.309 374.696 75.8909 374.744C71.5576 375.307 67.6664 375.484 63.3973 374.777C62.8024 374.664 61.5643 376.095 62.1351 376.586C72.1284 385.252 88.9152 389.554 101.409 393.043C104.753 393.967 108.202 394.675 111.635 395.366C108.202 395.479 104.649 395.615 101.891 397.593C101.73 397.706 100.886 398.711 101.441 398.815C107.535 399.989 113.734 401.139 119.844 402.063C115.591 401.452 111.635 402.803 107.342 403.808C107.02 403.872 106.104 404.974 106.659 405.078C122.473 407.683 136.309 417.982 149.446 426.56C157.453 431.729 165.847 436.658 174.433 440.71C181.644 444.07 187.272 449.915 194.235 453.613C194.838 453.959 196.14 452.496 195.77 451.885C193.977 448.87 192.321 445.791 190.657 442.696C197.177 448.002 204.694 451.989 211.833 456.339C219.358 460.905 227.093 465.319 235.06 469.275C241.066 473.15 247.047 477.081 252.972 481.069C249.66 480.956 246.38 480.988 242.939 481.334C242.617 481.35 241.709 482.339 242.127 482.62C252.329 489.293 263.327 493.096 273.071 500.806C278.378 505.011 284.592 507.463 289.448 512.343C289.778 512.673 290.115 513.018 290.453 513.348C277.373 511.531 266.005 503.861 253.077 501.481C256.638 504.577 260.497 507.35 264.364 510.028C257.233 508.79 249.965 508.002 242.995 506.683C225.252 503.29 207.315 498.081 189.25 496.465C160.782 493.892 129.451 489.872 101.176 495.918C100.701 496.015 99.2783 497.43 99.9697 497.896C102.784 499.89 106.337 500.38 109.963 500.782C107.977 500.951 105.983 501.24 104.046 501.691C103.571 501.771 102.052 503.532 103.001 503.684C110.751 504.906 118.228 506.555 125.89 508.331C129.089 509.071 131.951 510.59 135.296 510.47C129.765 510.671 123.445 508.645 117.641 508.645C101.385 508.613 84.9275 507.921 68.5909 508.476C74.7654 510.735 80.8273 513.107 87.0741 515.165C91.3592 515.712 95.6604 516.299 99.9858 516.861C104.03 517.352 107.953 517.947 111.949 518.839C114.329 519.402 117.585 519.547 118.71 519.579C117.922 519.547 115.872 519.579 111.86 519.659C104.697 519.788 97.3407 521.339 90.2096 521.934C89.7031 521.967 88.5614 523.446 89.285 523.647C94.7921 525.247 100.725 525.753 106.297 527.241C114.144 529.347 121.492 533.335 128.679 537.073C143.898 545.032 158.153 553.297 174.055 560.058C187.779 565.903 201.084 571.209 215.692 574.884C219.704 575.872 223.692 576.99 227.68 578.115C239.184 583.108 250.367 588.808 261.936 593.72C281.851 602.17 304.555 609.205 320.57 624.327C321.149 624.858 322.636 623.041 322.282 622.486C317.362 614.841 310.874 607.508 303.55 601.02C307.73 602.733 311.935 604.413 316.212 605.86C316.888 606.077 317.828 604.622 317.474 604.083C313.599 598.697 306.918 594.428 301.942 589.934C300.133 588.27 298.123 586.67 295.992 585.158C321.711 595.489 347.744 605.008 374.138 613.458C407.43 624.15 441.245 633.308 475.389 640.953C510.788 648.832 546.54 654.428 582.469 659.485C598.75 661.76 615.038 663.979 631.326 666.286C658.364 676.167 688.778 678.892 716.627 685.236C731.331 688.564 746.197 692.303 760.564 696.933C776.989 702.24 791.653 709.765 807.145 716.888C808.006 717.282 809.163 715.666 808.946 714.878C808.351 712.426 805.513 709.821 802.322 707.61C807.009 708.816 811.696 710.078 816.415 711.365C817.283 711.598 818.779 709.62 818.152 708.872C815.917 706.091 812.741 704.587 809.823 702.843C811.615 703.349 813.416 703.912 815.105 704.306C823.217 706.267 831.409 708.406 839.553 710.448C854.459 714.251 870.039 717.716 885.242 720.168C886.135 720.337 888.217 717.997 887.26 717.298C879.663 712.04 870.039 708.454 861.566 704.201C895.091 709.95 928.649 717.499 962.423 721.567C956.699 722.741 951.023 724.091 945.387 725.981C945.668 726.013 945.942 726.077 946.247 726.109C959.891 727.934 973.574 729.221 987.258 730.33C983.825 730.756 980.344 731.19 976.911 731.777C960.309 734.229 943.642 737.132 927.499 742.076C926.912 742.261 924.83 744.383 926.092 744.761C931.269 746.329 937.999 744.617 943.409 744.617C946.665 744.617 951.529 743.845 955.967 743.813C952.848 744.207 949.793 744.818 946.641 746.023C946.28 746.168 945.138 747.503 945.918 747.768C951.135 749.561 957.776 749.022 963.324 749.842C971.998 751.113 980.617 753.002 989.219 754.586C993.376 755.325 997.412 756.081 1001.63 756.411C1008.5 757.006 999.269 756.363 998.175 756.379C989.774 756.805 981.461 759.048 973.317 760.825C972.834 760.937 971.379 762.706 972.312 762.802C984.235 764.201 996.423 763.654 1008.44 764.659C1021.47 765.713 1034.41 768.181 1047.33 769.933C1055.34 770.987 1063.36 771.614 1071.42 771.863C1064.18 774.154 1056.87 776.132 1049.75 776.888C1049.01 776.936 1047.78 778.994 1048.86 778.914C1053.23 778.488 1057.81 778.946 1062.11 778.319C1064.67 777.676 1067.22 777.499 1069.74 777.844C1059.53 780.827 1048.81 783.086 1038.25 784.381C1037.63 784.477 1036.56 786.375 1037.23 786.326C1081.25 783.721 1123.75 777.394 1166.11 765.005C1166.5 764.893 1167.84 763.655 1167.23 763.228C1163.74 760.873 1157.79 761.074 1152.96 761.387C1161.22 760.792 1169.53 759.265 1177.62 757.866C1190.22 755.711 1203.05 754.899 1215.72 753.042C1223.78 751.836 1234.11 752.15 1241.61 748.773C1241.87 748.628 1242.95 747.535 1242.44 747.237C1237.34 744.335 1229.98 744.898 1224.07 744.721C1229.23 743.258 1234.37 741.754 1239.65 740.372C1265.07 733.795 1290.1 731.464 1313.97 719.549C1314.25 719.404 1315.54 717.949 1314.73 717.804C1301.48 715.61 1287.8 715.071 1274.28 715.714C1292.44 711.509 1310.01 704.692 1328.07 699.715C1328.61 699.546 1330.3 697.818 1329.25 697.44C1322.37 695.165 1312.53 696.467 1305.31 696.089C1294.09 695.583 1282.89 696.041 1271.75 696.966C1266.47 697.424 1261.22 697.938 1255.96 698.397C1253.88 698.525 1251.8 698.662 1249.73 698.758C1251.36 698.284 1252.96 697.818 1254.57 697.36C1259.45 695.977 1264.73 696.041 1269.5 694.441C1269.98 694.296 1271.58 692.697 1270.6 692.367C1262.34 689.666 1251.38 692.053 1242.71 691.394C1242.55 691.362 1242.39 691.362 1242.15 691.362C1248.31 690.622 1254.48 689.698 1260.63 688.878C1272.54 687.31 1284.33 684.89 1296.1 682.703C1304.27 681.168 1313.89 681.779 1321.45 678.257C1321.75 678.097 1323.18 676.376 1322.26 676.328C1317.51 675.934 1312.82 676.44 1308.11 676.014C1309.21 675.902 1310.27 675.781 1311.38 675.685C1320.77 674.728 1333.43 676.111 1342.11 672.509C1342.43 672.364 1343.82 670.7 1342.92 670.587Z" fill="#B2D237"/>
<path opacity="0.5" d="M55.8216 514.026C21.0421 501.838 -15.7956 492.199 -52.8584 489.449V510.786C-16.6317 509.275 19.7798 511.028 55.8216 514.026Z" fill="#BBD532"/>
<path opacity="0.5" d="M53.2409 456.653C81.452 461.348 109.953 464.299 138.091 469.581C159.091 473.504 180.517 478.577 200.117 487.453C167.436 466.132 132.198 449.064 98.7855 428.9C89.4273 423.264 80.3345 417.355 70.5663 412.459C61.0554 407.651 51.4078 403.286 41.7763 398.832C23.4781 390.35 5.17179 381.434 -10.1598 368.12C-11.0201 367.381 -10.2563 366.239 -9.37193 366.159C3.45935 364.808 16.3389 364.639 29.2264 364.639C17.1509 360.008 4.56078 357.162 -8.14186 354.622C-9.42017 354.373 -9.09054 352.379 -7.82028 352.379H12.4557C6.21695 350.666 -0.18261 349.565 -6.59021 348.504C-7.79616 348.303 -7.59517 346.59 -6.59021 346.293C25.0378 336.356 58.3219 334.828 90.9549 339.917C43.6737 326.178 -4.44363 315.171 -52.8584 305.323V440.067C-17.2588 443.774 18.1478 450.873 53.2409 456.653Z" fill="#78AE43"/>
<path opacity="0.5" d="M54.8488 576.974C82.8187 577.898 110.443 576.974 138.324 574.948C158.986 573.428 179.688 572.343 200.238 573.774C153.182 563.909 105.081 559.262 58.2656 548.103C31.2685 541.647 3.57994 537.941 -24.1649 537.153C-33.9411 536.872 -43.3716 537.354 -52.8584 538.327V562.317C-43.7575 564.641 -34.7451 567.358 -25.7889 569.585C0.436443 576.129 27.924 576.097 54.8488 576.974Z" fill="#78AE43"/>
<path opacity="0.5" d="M1452.64 629.393C1395.19 618.636 1337.41 609.769 1279.29 603.498C1217.74 596.841 1155.97 592.725 1094.09 591.092C1030.77 589.444 967.929 594.091 904.665 594.984C845.252 595.844 785.734 589.911 726.956 581.541C724.15 581.147 721.336 580.721 718.571 580.303C732.568 583.744 746.396 587.78 760.369 591.229C796.169 600.073 832.396 607.26 868.92 612.43C906.682 617.768 944.589 620.124 982.681 621.241C1054.42 623.412 1126.22 622.56 1197.93 624.65C1260.35 626.475 1325.29 631.307 1382.34 658.931C1383.36 659.438 1382.88 661.142 1381.76 661.07C1367.72 660.032 1353.74 661.399 1339.72 662.171C1359.64 665.202 1379.37 669.286 1398.91 674.15C1400.2 674.431 1399.92 676.393 1398.6 676.393C1386.72 676.457 1374.87 677.398 1363.05 678.572C1383.31 682.117 1403.24 687.681 1422.19 695.688C1422.95 696.018 1422.92 697.336 1422.19 697.666C1379.53 718.537 1334.67 734.078 1288.62 745.446C1245.33 756.122 1201.42 763.647 1157.5 771.181C1214.35 773.424 1272.95 760.206 1328.43 776.768C1329.61 777.13 1329.45 778.593 1328.43 778.979C1312.26 785.604 1294.86 788.193 1277.51 789.624C1242.85 792.47 1208.22 794.697 1173.59 798.178C1137.33 801.852 1101.15 804.127 1064.71 804.537C993.889 805.293 922.794 801.506 852.881 789.712C851.53 789.479 851.981 787.533 853.187 787.453C887.283 784.752 919.787 773.858 953.192 767.555C922.786 770.634 892.468 780.884 862.062 774.405C861.154 774.204 860.881 772.676 861.805 772.282C874.974 766.711 888.063 760.753 901.199 755.053C869.78 753.815 838.337 752.529 807.537 757.521C806.074 757.738 805.463 755.608 806.918 755.31C833.538 749.908 859.908 741.571 887.034 739.102C830.04 733.057 772.05 735.05 715.307 742.246C714.02 742.415 713.739 740.236 715.001 740.003C730.325 737.036 744.708 730.99 759.468 726.134C739.2 723.321 718.812 728.257 698.456 728.458C697.169 728.458 696.856 726.512 698.15 726.183C722.494 720.611 747.481 718.658 772.163 715.032C628.35 692.778 485.268 666.713 340.53 650.763C265.81 642.522 190.703 638.623 115.621 635.528C78.4135 633.976 40.9005 631.146 3.68492 632.231C-14.6294 632.778 -32.9598 633.96 -51.1535 636.219C-51.7485 636.299 -52.3112 636.388 -52.874 636.468V855.975H1460.32V630.913C1457.77 630.398 1455.25 629.836 1452.64 629.393Z" fill="#6FA23E"/>
<path d="M385.931 499.443C387.74 499.226 389.476 498.671 388.262 497.152C387 495.584 384.62 495.407 382.763 496.083C382.425 494.571 381.444 493.116 379.652 493.478C377.899 493.84 377.955 495.158 378.518 496.364C376.918 495.769 375.029 495.343 374.08 496.251C372.794 497.49 374.876 498.527 376.806 499.13C375.656 499.427 374.699 499.99 374.506 500.963C374.08 502.989 378.767 502.313 380.97 501.839C380.713 503.688 381.493 505.907 383.784 505.384C385.175 505.119 385.32 504.363 385.175 503.487C386.59 504.524 388.27 505.167 389.79 503.704C391.663 501.927 388.351 500.384 385.931 499.443Z" fill="#9ACA3C"/>
<path d="M385.934 498.58C387.759 498.363 389.512 497.76 388.306 496.273C387.036 494.721 384.648 494.544 382.783 495.203C382.461 493.692 381.464 492.237 379.647 492.598C377.935 492.976 377.991 494.295 378.514 495.501C376.946 494.906 375.065 494.48 374.108 495.372C372.813 496.61 374.904 497.647 376.825 498.242C375.708 498.54 374.727 499.119 374.534 500.091C374.108 502.101 378.795 501.442 380.966 500.952C380.757 502.793 381.488 505.004 383.796 504.545C385.17 504.232 385.339 503.476 385.211 502.584C386.618 503.637 388.306 504.296 389.809 502.833C391.666 501.04 388.354 499.504 385.934 498.58Z" fill="white"/>
<path d="M384.622 500.144C384.22 500.772 382.813 500.603 381.495 499.751C380.152 498.914 379.388 497.741 379.815 497.097C380.208 496.47 381.607 496.639 382.934 497.491C384.252 498.287 385.016 499.501 384.622 500.144Z" fill="#B2D237"/>
<path d="M243.551 435.552C245.376 435.335 247.088 434.74 245.914 433.244C244.644 431.677 242.224 431.484 240.391 432.175C240.021 430.664 239.081 429.208 237.256 429.602C235.543 429.932 235.559 431.251 236.122 432.457C234.522 431.878 232.673 431.452 231.716 432.344C230.422 433.598 232.504 434.619 234.402 435.198C233.284 435.512 232.303 436.074 232.143 437.063C231.716 439.073 236.404 438.398 238.574 437.923C238.357 439.748 239.129 441.992 241.388 441.485C242.779 441.236 242.94 440.416 242.779 439.539C244.194 440.609 245.915 441.284 247.41 439.805C249.267 438.012 245.971 436.476 243.551 435.552Z" fill="#9ACA3C"/>
<path d="M243.58 434.668C245.405 434.45 247.117 433.864 245.919 432.376C244.649 430.808 242.261 430.632 240.428 431.307C240.066 429.795 239.118 428.324 237.268 428.702C235.572 429.032 235.604 430.366 236.167 431.588C234.567 430.993 232.686 430.567 231.753 431.476C230.467 432.698 232.541 433.735 234.447 434.33C233.321 434.643 232.34 435.19 232.179 436.179C231.753 438.173 236.416 437.514 238.587 437.055C238.386 438.88 239.142 441.091 241.417 440.633C242.824 440.335 242.952 439.564 242.824 438.671C244.239 439.741 245.927 440.384 247.463 438.92C249.304 437.152 245.991 435.6 243.58 434.668Z" fill="white"/>
<path d="M242.256 436.241C241.862 436.868 240.447 436.699 239.137 435.863C237.786 435.019 237.031 433.805 237.425 433.178C237.818 432.551 239.217 432.704 240.568 433.572C241.887 434.416 242.65 435.598 242.256 436.241Z" fill="#B2D237"/>
<path d="M262.693 458.902C264.292 458.717 265.812 458.194 264.751 456.876C263.617 455.477 261.495 455.308 259.863 455.935C259.557 454.585 258.689 453.298 257.081 453.628C255.561 453.941 255.594 455.107 256.108 456.185C254.669 455.646 253.037 455.276 252.169 456.072C251.043 457.173 252.876 458.082 254.581 458.612C253.576 458.894 252.739 459.384 252.563 460.245C252.169 462.053 256.333 461.418 258.263 461C258.07 462.664 258.745 464.594 260.763 464.2C262.009 463.967 262.146 463.259 262.009 462.471C263.239 463.412 264.759 464.007 266.109 462.689C267.749 461.097 264.807 459.722 262.693 458.902Z" fill="#9ACA3C"/>
<path d="M262.694 458.129C264.294 457.928 265.813 457.421 264.752 456.103C263.659 454.688 261.52 454.551 259.896 455.178C259.583 453.827 258.714 452.509 257.114 452.855C255.603 453.152 255.635 454.334 256.125 455.395C254.686 454.889 253.07 454.503 252.194 455.299C251.044 456.416 252.902 457.293 254.582 457.839C253.609 458.121 252.741 458.611 252.564 459.471C252.194 461.264 256.359 460.637 258.296 460.243C258.103 461.875 258.779 463.837 260.764 463.419C262.01 463.17 262.179 462.478 262.027 461.706C263.273 462.631 264.76 463.194 266.111 461.907C267.751 460.315 264.832 458.933 262.694 458.129Z" fill="white"/>
<path d="M261.508 459.53C261.146 460.093 259.908 459.924 258.726 459.201C257.544 458.429 256.885 457.359 257.215 456.829C257.576 456.282 258.814 456.419 260.02 457.175C261.202 457.898 261.878 458.967 261.508 459.53Z" fill="#B2D237"/>
<path d="M19.6572 415.344C21.2571 415.143 22.8007 414.604 21.7314 413.318C20.6058 411.903 18.5155 411.734 16.8513 412.361C16.5458 411.011 15.6615 409.724 14.0616 410.022C12.5662 410.367 12.5742 411.517 13.0807 412.611C11.6818 412.048 9.99351 411.686 9.15739 412.498C8.03184 413.599 9.88096 414.524 11.5452 415.039C10.5643 415.304 9.71212 415.794 9.54329 416.638C9.15739 418.455 13.3219 417.844 15.2514 417.426C15.0665 419.058 15.7338 421.02 17.7598 420.602C18.9899 420.353 19.1024 419.693 18.9899 418.906C20.2521 419.83 21.7394 420.417 23.0901 419.123C24.7302 417.523 21.7877 416.148 19.6572 415.344Z" fill="#9ACA3C"/>
<path d="M19.6874 414.536C21.2551 414.352 22.8228 413.845 21.7616 412.527C20.6361 411.112 18.5136 410.943 16.8735 411.57C16.576 410.219 15.6917 408.917 14.0998 409.279C12.5723 409.576 12.6125 410.726 13.0788 411.819C11.6799 411.288 10.0237 410.895 9.18759 411.723C8.054 412.824 9.879 413.732 11.5673 414.247C10.5945 414.528 9.71821 415.035 9.54134 415.879C9.18759 417.656 13.32 417.061 15.2495 416.635C15.0646 418.299 15.7319 420.261 17.7739 419.835C19.004 419.585 19.1166 418.894 19.004 418.106C20.2421 419.047 21.7616 419.642 23.0801 418.323C24.7282 416.739 21.8179 415.389 19.6874 414.536Z" fill="white"/>
<path d="M18.5184 415.919C18.1486 416.482 16.9185 416.345 15.7286 415.606C14.5548 414.85 13.8795 413.781 14.2413 413.25C14.5789 412.687 15.8171 412.824 16.9908 413.596C18.1807 414.319 18.84 415.389 18.5184 415.919Z" fill="#B2D237"/>
<defs>
<linearGradient id="paint0_linear_12760_24348" x1="687.964" y1="211.932" x2="687.964" y2="606.422" gradientUnits="userSpaceOnUse">
<stop stop-color="#C9EC06"/>
<stop offset="1" stop-color="#1A5B43"/>
</linearGradient>
</defs>
</svg>
