<svg width="49" height="26" viewBox="0 0 49 26" fill="none" xmlns="http://www.w3.org/2000/svg">
<path d="M1.37069 25.7783C1.37069 25.7783 1.28223 25.521 1.18575 25.0628C1.09732 24.5884 0.984814 23.897 0.976775 23.0207C0.936576 22.1283 1.01695 21.059 1.23402 19.8289C1.4511 18.6149 1.85305 17.2482 2.50427 15.8171C3.76649 13.0193 6.04174 9.89996 9.38623 7.83377C10.2143 7.32727 11.0826 6.86902 11.9911 6.47508L12.6744 6.19369L12.8352 6.11329C13.0121 6.0329 12.988 6.06505 13.0604 6.03289L13.3659 5.90425C13.9206 5.70326 14.4673 5.52639 14.9577 5.39776C17.0078 4.85106 18.9856 4.5938 20.907 4.44104C24.758 4.1275 28.4402 4.26416 31.8329 4.37672C35.2337 4.46515 38.3611 4.56968 40.974 4.29633C43.5869 4.06318 45.6209 3.35568 46.7947 2.47132C47.3897 2.04522 47.7675 1.61108 48.0007 1.29753C48.2338 0.967908 48.3383 0.783003 48.3383 0.783003C48.4268 0.61417 48.6358 0.549856 48.8046 0.638292C48.9493 0.710649 49.0136 0.87144 48.9734 1.03223L48.9654 1.0483C48.9654 1.0483 48.9011 1.28146 48.7081 1.70756C48.5313 2.11758 48.1936 2.72859 47.5987 3.37176C47.0118 4.01493 46.1676 4.69027 45.0984 5.22089C44.0371 5.78367 42.799 6.24996 41.4242 6.63586C38.6666 7.4157 35.4266 7.92221 32.0098 8.30007C28.609 8.74225 25.0073 9.06384 21.6387 9.74721C19.9745 10.0929 18.3665 10.5512 17.0399 11.2265C16.6942 11.3793 16.4128 11.5481 16.1556 11.7089L15.8662 11.8777C15.8501 11.8938 15.7054 11.9581 15.7777 11.934L15.6652 12.0224L15.1828 12.3521C14.5477 12.7942 13.9527 13.2605 13.3497 13.6866C12.184 14.579 11.1067 15.4473 10.0696 16.2915C9.04052 17.1356 8.11596 18.0361 7.27983 18.9124C6.42763 19.7727 5.70405 20.657 5.06088 21.469C4.39359 22.273 3.87904 23.0368 3.41274 23.6799C2.9786 24.3392 2.61682 24.8698 2.39171 25.2396C2.15052 25.6175 2.02994 25.8104 2.02994 25.8104L2.02191 25.8345C1.90935 26.0114 1.67618 26.0597 1.50735 25.9551C1.45107 25.931 1.3948 25.8587 1.37069 25.7783Z" fill="#030E14"/>
<path d="M1.03027 24.221C1.03027 24.221 1.03026 24.012 1.06241 23.6019C1.07849 23.2 1.11873 22.605 1.21521 21.8573C1.2956 21.4875 1.35992 21.0695 1.43228 20.6273C1.54484 20.1851 1.6413 19.7027 1.78601 19.1882C2.08348 18.1752 2.46133 17.0335 3.04019 15.8678C3.32961 15.2889 3.61905 14.6618 4.02104 14.083C4.20595 13.7855 4.40692 13.4881 4.60792 13.1826C4.80087 12.8851 5.05009 12.6037 5.28324 12.3062C5.52443 12.0248 5.74153 11.7113 6.01488 11.4299C6.29627 11.1646 6.56958 10.8912 6.85097 10.6179C7.37355 10.023 8.06498 9.58079 8.71619 9.08233C10.0427 8.12561 11.5622 7.33773 13.1782 6.73475L13.7811 6.49356L14.4083 6.32472L15.6544 5.97903C16.4905 5.71372 17.3669 5.58508 18.1949 5.43232C19.0311 5.25545 19.8994 5.1429 20.7596 5.03838C21.6118 4.90975 22.472 4.8374 23.3162 4.77308C25.0126 4.63641 26.7009 4.60425 28.3249 4.63641C29.9489 4.66856 31.5086 4.78111 32.9798 4.93386C34.4672 5.07858 35.85 5.20721 37.1363 5.26349C37.7715 5.29565 38.3825 5.32782 38.9774 5.3037C39.5563 5.31174 40.111 5.26349 40.6336 5.20721C41.1481 5.18309 41.6225 5.05446 42.0727 4.99014C42.5149 4.91778 42.9088 4.7972 43.2706 4.69268C44.0022 4.50777 44.5328 4.25853 44.9187 4.12186C45.2885 3.97715 45.4895 3.90479 45.4895 3.90479C45.4895 3.90479 45.2966 4.00127 44.9348 4.1701C44.5569 4.33893 44.0424 4.62032 43.3108 4.83739C42.949 4.95799 42.5631 5.11074 42.129 5.20721C41.6707 5.30369 41.1883 5.44037 40.6657 5.49665C39.6206 5.67352 38.4227 5.72175 37.1203 5.70567C35.8259 5.68156 34.435 5.57705 32.9477 5.49665C31.4684 5.40821 29.9328 5.34389 28.3168 5.31173C26.725 5.30369 25.0608 5.33585 23.3885 5.50469C22.5524 5.57704 21.7002 5.66548 20.8721 5.78607C20.0199 5.89863 19.1838 6.01923 18.3316 6.1961C17.4955 6.35689 16.6353 6.46141 15.8393 6.72672L14.6093 7.04829L14.0143 7.20106L13.4274 7.42616C11.8677 7.99698 10.3884 8.73662 9.09403 9.63707C8.46694 10.1194 7.8077 10.5455 7.27708 11.0922C6.98766 11.3575 6.72238 11.6068 6.44099 11.8641C6.17568 12.1294 5.95055 12.4188 5.70936 12.7002C5.48425 12.9816 5.23503 13.2388 5.01796 13.5363C4.81697 13.8177 4.62403 14.1071 4.43911 14.3965C4.02105 14.9352 3.73158 15.5462 3.40999 16.0929C2.8231 17.2345 2.39701 18.3199 2.0513 19.3088C1.88247 19.7911 1.7699 20.2655 1.62519 20.7077C1.52871 21.1498 1.4403 21.5518 1.3599 21.9136C1.22323 22.6533 1.13481 23.2321 1.09462 23.6421C1.06246 24.012 1.03027 24.221 1.03027 24.221Z" fill="url(#paint0_linear_16745_577)"/>
<defs>
<linearGradient id="paint0_linear_16745_577" x1="23.2599" y1="3.90479" x2="23.2599" y2="24.221" gradientUnits="userSpaceOnUse">
<stop stop-color="#C9EC06"/>
<stop offset="1" stop-color="#1A5B43"/>
</linearGradient>
</defs>
</svg>
