<svg width="36" height="15" viewBox="0 0 36 15" fill="none" xmlns="http://www.w3.org/2000/svg">
<path d="M35.1578 10.0448C35.1578 10.0448 35.0372 9.90814 34.8523 9.71519C34.6352 9.5142 34.3137 9.2087 33.8876 8.863C33.4454 8.50925 32.9147 8.10725 32.2796 7.68919C31.6203 7.27917 30.8727 6.86111 30.0365 6.48325C28.3804 5.71144 26.3222 5.1326 24.1194 4.95573C23.0099 4.85925 21.8763 4.92357 20.7266 4.98788C20.1558 5.06024 19.585 5.13258 18.9901 5.20494C18.4273 5.3175 17.8404 5.47025 17.2776 5.59085L16.8435 5.68733L16.7872 5.71145H16.7631L16.755 5.71949C16.6344 5.74361 16.8756 5.68733 16.8515 5.69537L16.739 5.74361L16.5058 5.80792C16.1842 5.91244 15.8707 6.00892 15.5732 6.12951L14.6406 6.46718C14.3673 6.57973 14.1502 6.70033 13.901 6.82896C12.9684 7.28722 12.0116 7.83391 11.0871 8.29217C10.1866 8.75043 9.31836 9.16046 8.48224 9.56245C7.66219 10.0046 6.89038 10.4146 6.15877 10.8649C5.44324 11.307 4.76795 11.7331 4.18909 12.1834C3.59416 12.6095 3.04747 13.0275 2.62136 13.3974C2.17918 13.7672 1.8254 14.0807 1.57617 14.2978C1.34302 14.5149 1.2144 14.6435 1.2144 14.6435L1.18226 14.6757C1.01343 14.8204 0.772236 14.8204 0.627522 14.6596C0.587324 14.6033 0.555148 14.547 0.547108 14.4988C0.547108 14.4988 0.4828 14.2978 0.418483 13.936C0.370245 13.5742 0.313937 13.0436 0.362175 12.3683C0.402373 11.709 0.506891 10.8649 0.804358 9.98051C1.05359 9.07203 1.48774 8.08314 2.11484 7.09426C3.32882 5.11651 5.3548 3.05837 7.95964 1.83634C9.27814 1.2414 10.6771 0.847462 12.2207 0.606273C12.5825 0.541956 12.9925 0.461549 13.3463 0.42939L14.311 0.340957C14.6406 0.316838 14.9702 0.284686 15.2999 0.244488L15.9109 0.172125L16.4576 0.156054C17.1892 0.123896 17.9047 0.06761 18.6283 0.0595703C19.3519 0.107808 20.0754 0.139966 20.7909 0.172125C22.222 0.324878 23.6048 0.598236 24.9153 0.992179C26.2097 1.4022 27.4317 1.88458 28.509 2.47951C29.5943 3.05836 30.5511 3.71762 31.3631 4.36883C32.1992 5.03612 32.8746 5.71948 33.4534 6.33854C34.0081 6.96563 34.4503 7.54448 34.788 8.04294C35.1257 8.54944 35.3588 8.95143 35.5196 9.23282C35.6804 9.53028 35.7366 9.68303 35.7366 9.68303C35.8251 9.85187 35.7447 10.0689 35.5678 10.1493C35.4231 10.1976 35.2543 10.1574 35.1578 10.0448Z" fill="#030E14"/>
<path d="M1.12891 11.9324C1.12891 11.9324 1.16107 11.7636 1.22539 11.4661C1.28971 11.1767 1.38618 10.7425 1.57109 10.2119C1.756 9.68128 2.01326 9.03812 2.37504 8.33063C2.73683 7.63118 3.19509 6.85133 3.82218 6.10364C3.97494 5.91069 4.13577 5.71773 4.3046 5.52478C4.47343 5.32379 4.6583 5.14692 4.84321 4.96201C5.02812 4.7771 5.20505 4.57611 5.40604 4.39924C5.61507 4.2304 5.84013 4.05353 6.0572 3.86862C6.4833 3.49879 6.98177 3.20132 7.48827 2.87973C7.96261 2.53403 8.52543 2.31696 9.0882 2.04361C9.6349 1.74614 10.2459 1.60143 10.8328 1.3924C11.4357 1.15925 12.0629 1.07082 12.69 0.918062C13.0115 0.861785 13.317 0.765314 13.6466 0.741195L14.6195 0.644711L15.5923 0.532156L15.8334 0.516086L16.0746 0.508035L16.565 0.5C17.2082 0.516079 17.8434 0.483914 18.5026 0.540192C19.1458 0.596469 19.797 0.660801 20.4321 0.709039C21.0753 0.829634 21.7024 0.926097 22.3214 1.03865C22.9244 1.18337 23.5274 1.35221 24.1303 1.49692C24.7092 1.66575 25.28 1.89085 25.8267 2.07576C26.3734 2.27676 26.896 2.55011 27.4106 2.76718C28.4075 3.2576 29.324 3.78822 30.144 4.31884C30.546 4.58415 30.9158 4.86553 31.2776 5.13888C31.6233 5.40418 31.9369 5.68557 32.2504 5.94284C32.8373 6.45738 33.3197 6.9478 33.7217 7.35783C34.4854 8.18591 34.8311 8.74064 34.8311 8.74064C34.8311 8.74064 34.7266 8.61201 34.5256 8.39494C34.3327 8.16983 34.0111 7.86432 33.6011 7.47038C33.2071 7.09252 32.6926 6.63425 32.0735 6.16795C31.4464 5.69361 30.7229 5.19515 29.9189 4.69669C29.0989 4.19823 28.1743 3.72391 27.1693 3.28172C26.6628 3.08877 26.1644 2.84758 25.6177 2.67874C25.071 2.51795 24.5163 2.30088 23.9535 2.14813C23.3747 2.01145 22.7877 1.85066 22.1928 1.72203C21.5898 1.62555 20.9708 1.53711 20.3517 1.43259C19.7326 1.38436 19.1217 1.33612 18.4865 1.28788C17.8755 1.23964 17.2163 1.27985 16.5812 1.27181H16.0827H15.8656L15.6324 1.30397L14.6999 1.38437L13.7592 1.46476C13.4537 1.49692 13.1482 1.58536 12.8427 1.6336C12.2397 1.76223 11.6207 1.83458 11.0498 2.05969C10.471 2.25265 9.8841 2.38931 9.36152 2.65462C8.83895 2.90385 8.27617 3.11289 7.80183 3.42644C7.31141 3.70782 6.82097 3.97313 6.39487 4.31884C6.18584 4.47963 5.97684 4.64042 5.76781 4.80121C5.56682 4.962 5.38192 5.15496 5.18897 5.32379C5.00406 5.49263 4.81109 5.65342 4.6503 5.84637C4.48147 6.02325 4.32868 6.20816 4.15985 6.37699C3.53275 7.10056 3.04237 7.82412 2.64039 8.48337C2.23037 9.14262 1.94898 9.76167 1.73995 10.2762C1.52288 10.7907 1.37013 11.2088 1.2817 11.4982C1.16914 11.7635 1.12891 11.9324 1.12891 11.9324Z" fill="url(#paint0_linear_16744_573)"/>
<defs>
<linearGradient id="paint0_linear_16744_573" x1="17.98" y1="0.5" x2="17.98" y2="11.9324" gradientUnits="userSpaceOnUse">
<stop stop-color="#C9EC06"/>
<stop offset="1" stop-color="#1A5B43"/>
</linearGradient>
</defs>
</svg>
